<svg width="1000" height="150" viewBox="0 0 1000 150" fill="none" xmlns="http://www.w3.org/2000/svg">
<g clip-path="url(#clip0_1_74)">
<rect width="1000" height="150" fill="#19212C"/>
<path d="M120.16 78V44.4H132.592C134.96 44.4 136.912 44.784 138.448 45.552C140.016 46.288 141.2 47.312 142 48.624C142.8 49.904 143.2 51.36 143.2 52.992C143.2 54.688 142.816 56.112 142.048 57.264C141.312 58.416 140.336 59.312 139.12 59.952C137.936 60.56 136.656 60.912 135.28 61.008L136 60.528C137.44 60.56 138.768 60.96 139.984 61.728C141.2 62.464 142.16 63.456 142.864 64.704C143.6 65.952 143.968 67.328 143.968 68.832C143.968 70.56 143.536 72.128 142.672 73.536C141.84 74.912 140.608 76 138.976 76.8C137.344 77.6 135.344 78 132.976 78H120.16ZM124.96 74.016H132.4C134.48 74.016 136.112 73.536 137.296 72.576C138.48 71.584 139.072 70.192 139.072 68.4C139.072 66.64 138.464 65.232 137.248 64.176C136.032 63.12 134.384 62.592 132.304 62.592H124.96V74.016ZM124.96 58.896H132.064C134.08 58.896 135.616 58.432 136.672 57.504C137.728 56.544 138.256 55.232 138.256 53.568C138.256 51.968 137.728 50.704 136.672 49.776C135.616 48.816 134.032 48.336 131.92 48.336H124.96V58.896ZM147.582 78V44.4H152.382V78H147.582ZM165.411 78.576C163.555 78.576 161.939 78.192 160.562 77.424C159.187 76.624 158.115 75.44 157.347 73.872C156.611 72.304 156.243 70.32 156.243 67.92V54.192H161.043V67.44C161.043 69.744 161.523 71.504 162.483 72.72C163.475 73.904 164.915 74.496 166.803 74.496C168.115 74.496 169.267 74.192 170.259 73.584C171.251 72.944 172.035 72.032 172.611 70.848C173.219 69.632 173.523 68.192 173.523 66.528V54.192H178.323V78H174.147L173.715 74.256H173.523C172.723 75.536 171.651 76.576 170.307 77.376C168.963 78.176 167.331 78.576 165.411 78.576ZM193.402 78.576C191.066 78.576 189.002 78.064 187.21 77.04C185.418 75.984 184.01 74.528 182.986 72.672C181.962 70.816 181.45 68.64 181.45 66.144C181.45 63.648 181.946 61.472 182.938 59.616C183.962 57.728 185.37 56.256 187.162 55.2C188.986 54.144 191.082 53.616 193.45 53.616C195.818 53.616 197.85 54.144 199.546 55.2C201.242 56.224 202.554 57.584 203.482 59.28C204.442 60.976 204.922 62.864 204.922 64.944C204.922 65.264 204.922 65.616 204.922 66C204.922 66.384 204.89 66.784 204.826 67.2H184.954V63.84H200.122C200.026 61.792 199.354 60.208 198.106 59.088C196.858 57.936 195.29 57.36 193.402 57.36C192.122 57.36 190.922 57.648 189.802 58.224C188.714 58.8 187.834 59.664 187.162 60.816C186.49 61.968 186.154 63.424 186.154 65.184V66.528C186.154 68.288 186.49 69.776 187.162 70.992C187.834 72.176 188.714 73.072 189.802 73.68C190.922 74.288 192.106 74.592 193.354 74.592C194.89 74.592 196.154 74.256 197.146 73.584C198.17 72.88 198.922 71.936 199.402 70.752H204.25C203.802 72.256 203.082 73.6 202.09 74.784C201.098 75.936 199.866 76.864 198.394 77.568C196.954 78.24 195.29 78.576 193.402 78.576ZM208.051 78V44.4H214.531L229.795 72.192H229.987V44.4H234.787V78H228.307L213.043 50.256H212.851V78H208.051ZM250.121 78.576C247.785 78.576 245.721 78.064 243.929 77.04C242.137 75.984 240.729 74.528 239.705 72.672C238.681 70.816 238.169 68.64 238.169 66.144C238.169 63.648 238.665 61.472 239.657 59.616C240.681 57.728 242.089 56.256 243.881 55.2C245.705 54.144 247.801 53.616 250.169 53.616C252.537 53.616 254.569 54.144 256.265 55.2C257.961 56.224 259.273 57.584 260.201 59.28C261.161 60.976 261.641 62.864 261.641 64.944C261.641 65.264 261.641 65.616 261.641 66C261.641 66.384 261.609 66.784 261.545 67.2H241.673V63.84H256.841C256.745 61.792 256.073 60.208 254.825 59.088C253.577 57.936 252.009 57.36 250.121 57.36C248.841 57.36 247.641 57.648 246.521 58.224C245.433 58.8 244.553 59.664 243.881 60.816C243.209 61.968 242.873 63.424 242.873 65.184V66.528C242.873 68.288 243.209 69.776 243.881 70.992C244.553 72.176 245.433 73.072 246.521 73.68C247.641 74.288 248.825 74.592 250.073 74.592C251.609 74.592 252.873 74.256 253.865 73.584C254.889 72.88 255.641 71.936 256.121 70.752H260.969C260.521 72.256 259.801 73.6 258.809 74.784C257.817 75.936 256.585 76.864 255.113 77.568C253.673 78.24 252.009 78.576 250.121 78.576ZM273.985 78.576C272.033 78.576 270.289 78.24 268.753 77.568C267.217 76.896 265.969 75.968 265.009 74.784C264.081 73.568 263.521 72.144 263.329 70.512H268.177C268.369 71.248 268.673 71.952 269.089 72.624C269.537 73.296 270.161 73.856 270.961 74.304C271.793 74.72 272.801 74.928 273.985 74.928C275.041 74.928 275.905 74.784 276.577 74.496C277.281 74.176 277.793 73.76 278.113 73.248C278.465 72.736 278.641 72.176 278.641 71.568C278.641 70.832 278.401 70.24 277.921 69.792C277.473 69.312 276.817 68.912 275.953 68.592C275.121 68.24 274.113 67.904 272.929 67.584C271.937 67.296 270.929 66.992 269.905 66.672C268.881 66.32 267.953 65.904 267.121 65.424C266.289 64.944 265.617 64.32 265.105 63.552C264.593 62.752 264.337 61.776 264.337 60.624C264.337 59.312 264.689 58.128 265.393 57.072C266.129 56.016 267.169 55.184 268.513 54.576C269.857 53.936 271.457 53.616 273.313 53.616C275.937 53.616 278.065 54.256 279.697 55.536C281.361 56.784 282.337 58.592 282.625 60.96H277.969C277.841 59.776 277.361 58.864 276.529 58.224C275.729 57.584 274.641 57.264 273.265 57.264C271.921 57.264 270.881 57.552 270.145 58.128C269.441 58.704 269.089 59.424 269.089 60.288C269.089 60.864 269.281 61.344 269.665 61.728C270.049 62.112 270.641 62.448 271.441 62.736C272.273 62.992 273.297 63.312 274.513 63.696C276.049 64.144 277.489 64.64 278.833 65.184C280.209 65.728 281.313 66.448 282.145 67.344C283.009 68.208 283.441 69.408 283.441 70.944C283.473 72.416 283.089 73.728 282.289 74.88C281.521 76.032 280.433 76.944 279.025 77.616C277.617 78.256 275.937 78.576 273.985 78.576ZM295.23 78C293.726 78 292.398 77.76 291.246 77.28C290.126 76.8 289.262 76 288.654 74.88C288.078 73.76 287.79 72.24 287.79 70.32V57.792H283.662V54.192H287.79L288.318 48.24H292.59V54.192H299.358V57.792H292.59V70.368C292.59 71.872 292.862 72.88 293.406 73.392C293.982 73.904 294.974 74.16 296.382 74.16H299.07V78H295.23Z" fill="#146AF5"/>
<path d="M131.042 106.396C128.776 106.396 126.818 105.901 125.168 104.911C123.518 103.899 122.242 102.502 121.34 100.72C120.46 98.916 120.02 96.826 120.02 94.45C120.02 92.074 120.471 89.995 121.373 88.213C122.275 86.409 123.54 85.012 125.168 84.022C126.818 83.01 128.776 82.504 131.042 82.504C133.704 82.504 135.86 83.131 137.51 84.385C139.16 85.639 140.216 87.41 140.678 89.698H137.609C137.257 88.268 136.542 87.124 135.464 86.266C134.386 85.408 132.912 84.979 131.042 84.979C129.392 84.979 127.951 85.364 126.719 86.134C125.487 86.882 124.53 87.971 123.848 89.401C123.188 90.809 122.858 92.492 122.858 94.45C122.858 96.408 123.188 98.102 123.848 99.532C124.53 100.94 125.487 102.029 126.719 102.799C127.951 103.547 129.392 103.921 131.042 103.921C132.912 103.921 134.397 103.503 135.497 102.667C136.597 101.809 137.323 100.687 137.675 99.301H140.678C140.216 101.523 139.16 103.261 137.51 104.515C135.86 105.769 133.704 106.396 131.042 106.396ZM143.781 106V89.632H146.256L146.487 93.031H146.553C147.015 92.019 147.521 91.249 148.071 90.721C148.621 90.171 149.259 89.786 149.985 89.566C150.733 89.346 151.624 89.236 152.658 89.236V92.14H151.899C151.085 92.14 150.348 92.25 149.688 92.47C149.028 92.668 148.456 92.987 147.972 93.427C147.51 93.845 147.158 94.406 146.916 95.11C146.674 95.814 146.553 96.65 146.553 97.618V106H143.781ZM161.68 106.396C160.118 106.396 158.732 106.044 157.522 105.34C156.312 104.614 155.355 103.613 154.651 102.337C153.969 101.039 153.628 99.532 153.628 97.816C153.628 96.078 153.969 94.571 154.651 93.295C155.333 92.019 156.279 91.029 157.489 90.325C158.721 89.599 160.14 89.236 161.746 89.236C163.352 89.236 164.727 89.599 165.871 90.325C167.015 91.029 167.895 91.964 168.511 93.13C169.127 94.274 169.435 95.528 169.435 96.892C169.435 97.112 169.435 97.354 169.435 97.618C169.435 97.86 169.424 98.135 169.402 98.443H155.707V96.298H166.696C166.63 94.78 166.124 93.603 165.178 92.767C164.254 91.909 163.088 91.48 161.68 91.48C160.734 91.48 159.854 91.689 159.04 92.107C158.226 92.525 157.566 93.141 157.06 93.955C156.576 94.769 156.334 95.803 156.334 97.057V97.981C156.334 99.345 156.587 100.478 157.093 101.38C157.599 102.282 158.259 102.964 159.073 103.426C159.909 103.866 160.778 104.086 161.68 104.086C162.824 104.086 163.781 103.822 164.551 103.294C165.321 102.766 165.882 102.04 166.234 101.116H168.973C168.687 102.128 168.214 103.03 167.554 103.822C166.894 104.614 166.069 105.241 165.079 105.703C164.111 106.165 162.978 106.396 161.68 106.396ZM177.651 106.396C176.331 106.396 175.22 106.165 174.318 105.703C173.438 105.241 172.778 104.625 172.338 103.855C171.92 103.085 171.711 102.249 171.711 101.347C171.711 100.225 171.997 99.279 172.569 98.509C173.163 97.739 173.988 97.156 175.044 96.76C176.122 96.342 177.387 96.133 178.839 96.133H183.261C183.261 95.077 183.096 94.208 182.766 93.526C182.436 92.844 181.963 92.338 181.347 92.008C180.731 91.656 179.994 91.48 179.136 91.48C178.058 91.48 177.123 91.755 176.331 92.305C175.539 92.833 175.055 93.647 174.879 94.747H172.041C172.173 93.559 172.569 92.558 173.229 91.744C173.889 90.93 174.736 90.314 175.77 89.896C176.804 89.456 177.926 89.236 179.136 89.236C180.676 89.236 181.952 89.522 182.964 90.094C183.998 90.644 184.768 91.425 185.274 92.437C185.78 93.427 186.033 94.593 186.033 95.935V106H183.657L183.426 103.129H183.36C183.074 103.635 182.744 104.086 182.37 104.482C181.996 104.878 181.567 105.219 181.083 105.505C180.621 105.791 180.104 106.011 179.532 106.165C178.96 106.319 178.333 106.396 177.651 106.396ZM178.146 104.053C178.96 104.053 179.675 103.899 180.291 103.591C180.929 103.261 181.468 102.821 181.908 102.271C182.348 101.721 182.678 101.105 182.898 100.423C183.14 99.719 183.261 99.004 183.261 98.278H179.07C177.992 98.278 177.123 98.41 176.463 98.674C175.803 98.916 175.33 99.257 175.044 99.697C174.758 100.137 174.615 100.643 174.615 101.215C174.615 101.787 174.747 102.293 175.011 102.733C175.297 103.151 175.704 103.481 176.232 103.723C176.76 103.943 177.398 104.053 178.146 104.053ZM195.27 106C194.28 106 193.422 105.846 192.696 105.538C191.97 105.23 191.409 104.713 191.013 103.987C190.639 103.239 190.452 102.238 190.452 100.984V91.777H187.614V89.632H190.452L190.815 85.705H193.224V89.632H198.042V91.777H193.224V100.984C193.224 102.084 193.433 102.821 193.851 103.195C194.269 103.569 195.006 103.756 196.062 103.756H197.778V106H195.27ZM200.864 106V89.632H203.636V106H200.864ZM202.25 86.2C201.7 86.2 201.238 86.024 200.864 85.672C200.512 85.298 200.336 84.836 200.336 84.286C200.336 83.736 200.512 83.285 200.864 82.933C201.238 82.559 201.7 82.372 202.25 82.372C202.778 82.372 203.229 82.559 203.603 82.933C203.977 83.285 204.164 83.736 204.164 84.286C204.164 84.836 203.977 85.298 203.603 85.672C203.229 86.024 202.778 86.2 202.25 86.2ZM215.082 106.396C213.542 106.396 212.156 106.044 210.924 105.34C209.692 104.636 208.713 103.646 207.987 102.37C207.283 101.072 206.931 99.554 206.931 97.816C206.931 96.078 207.294 94.571 208.02 93.295C208.746 91.997 209.725 90.996 210.957 90.292C212.211 89.588 213.608 89.236 215.148 89.236C216.688 89.236 218.074 89.588 219.306 90.292C220.538 90.996 221.506 91.997 222.21 93.295C222.936 94.571 223.299 96.078 223.299 97.816C223.299 99.554 222.936 101.072 222.21 102.37C221.484 103.646 220.494 104.636 219.24 105.34C218.008 106.044 216.622 106.396 215.082 106.396ZM215.082 104.152C216.028 104.152 216.908 103.921 217.722 103.459C218.536 102.975 219.196 102.271 219.702 101.347C220.208 100.401 220.461 99.224 220.461 97.816C220.461 96.386 220.208 95.209 219.702 94.285C219.218 93.339 218.569 92.635 217.755 92.173C216.941 91.711 216.072 91.48 215.148 91.48C214.224 91.48 213.344 91.711 212.508 92.173C211.694 92.635 211.034 93.339 210.528 94.285C210.022 95.209 209.769 96.386 209.769 97.816C209.769 99.224 210.022 100.401 210.528 101.347C211.034 102.271 211.683 102.975 212.475 103.459C213.289 103.921 214.158 104.152 215.082 104.152ZM226.217 106V89.632H228.692L228.89 92.371H228.989C229.539 91.403 230.287 90.644 231.233 90.094C232.179 89.522 233.29 89.236 234.566 89.236C235.842 89.236 236.953 89.5 237.899 90.028C238.845 90.534 239.582 91.326 240.11 92.404C240.638 93.46 240.902 94.802 240.902 96.43V106H238.13V96.727C238.13 95.033 237.767 93.757 237.041 92.899C236.315 92.041 235.27 91.612 233.906 91.612C232.96 91.612 232.113 91.843 231.365 92.305C230.639 92.767 230.056 93.438 229.616 94.318C229.198 95.176 228.989 96.243 228.989 97.519V106H226.217ZM250.438 106.396C249.14 106.396 247.974 106.176 246.94 105.736C245.906 105.274 245.07 104.636 244.432 103.822C243.816 102.986 243.431 102.007 243.277 100.885H246.115C246.247 101.435 246.478 101.963 246.808 102.469C247.16 102.975 247.633 103.382 248.227 103.69C248.843 103.998 249.591 104.152 250.471 104.152C251.263 104.152 251.901 104.042 252.385 103.822C252.891 103.58 253.265 103.272 253.507 102.898C253.771 102.502 253.903 102.084 253.903 101.644C253.903 101.028 253.738 100.544 253.408 100.192C253.078 99.84 252.605 99.554 251.989 99.334C251.373 99.114 250.636 98.894 249.778 98.674C249.118 98.498 248.447 98.3 247.765 98.08C247.083 97.86 246.456 97.585 245.884 97.255C245.334 96.903 244.883 96.474 244.531 95.968C244.201 95.44 244.036 94.791 244.036 94.021C244.036 93.097 244.278 92.283 244.762 91.579C245.246 90.853 245.928 90.281 246.808 89.863C247.71 89.445 248.766 89.236 249.976 89.236C251.714 89.236 253.133 89.665 254.233 90.523C255.355 91.381 256.004 92.624 256.18 94.252H253.441C253.353 93.372 253.001 92.69 252.385 92.206C251.791 91.722 250.977 91.48 249.943 91.48C248.931 91.48 248.15 91.7 247.6 92.14C247.072 92.558 246.808 93.097 246.808 93.757C246.808 94.197 246.951 94.571 247.237 94.879C247.523 95.165 247.952 95.418 248.524 95.638C249.118 95.836 249.844 96.056 250.702 96.298C251.714 96.584 252.671 96.903 253.573 97.255C254.497 97.585 255.245 98.058 255.817 98.674C256.411 99.29 256.708 100.148 256.708 101.248C256.73 102.26 256.477 103.151 255.949 103.921C255.443 104.691 254.717 105.296 253.771 105.736C252.847 106.176 251.736 106.396 250.438 106.396Z" fill="#146AF5"/>
<rect x="49" y="44" width="63" height="63" fill="url(#paint0_linear_1_74)"/>
<mask id="mask0_1_74" style="mask-type:alpha" maskUnits="userSpaceOnUse" x="49" y="44" width="63" height="63">
<rect x="49" y="44" width="63" height="63" fill="#146AF5"/>
</mask>
<g mask="url(#mask0_1_74)">
<path d="M118 125H121V119H118V125ZM52 56C49 56 49 56.0017 49 56.0037C49 56.0047 49 56.0069 49 56.0089C49 56.0129 49 56.0179 49.0001 56.0238C49.0001 56.0358 49.0002 56.0518 49.0003 56.0716C49.0007 56.1114 49.0013 56.167 49.0024 56.2377C49.0047 56.3792 49.0091 56.5817 49.0178 56.8412C49.0351 57.3599 49.0692 58.1069 49.1365 59.0497C49.2711 60.9341 49.5389 63.6066 50.0721 66.8057C51.1361 73.1897 53.2696 81.7475 57.5667 90.3416C61.8697 98.9475 68.3712 107.645 78.1796 114.184C88.0069 120.735 100.975 125 118 125V119C102.025 119 90.2431 115.015 81.5078 109.191C72.7538 103.355 66.8803 95.5525 62.9333 87.6584C58.9804 79.7525 56.9889 71.8103 55.9904 65.8193C55.4924 62.8309 55.2445 60.3471 55.1213 58.6222C55.0597 57.7602 55.0294 57.0893 55.0144 56.6413C55.007 56.4173 55.0034 56.2492 55.0016 56.141C55.0008 56.0868 55.0003 56.0477 55.0002 56.024C55.0001 56.0122 55 56.0042 55 56.0002C55 55.9982 55 55.9972 55 55.9971C55 55.9971 55 55.9978 55 55.9978C55 55.9988 55 56 52 56Z" fill="white"/>
<path d="M67 62C67 62 67 107 112 107" stroke="white" stroke-width="6"/>
<path d="M85 72.8462C85 82.1383 92.3873 89 101.5 89C110.613 89 118 82.1383 118 72.8462C118 62 110.613 47 101.5 47C92.3873 47 85 62 85 72.8462Z" stroke="white" stroke-width="6"/>
</g>
<path d="M126.5 154.5V150.833L130.167 147.167V154.5H126.5ZM133.833 154.5V143.5L137.5 139.833V154.5H133.833ZM141.167 154.5V139.833L144.833 143.546V154.5H141.167ZM148.5 154.5V143.546L152.167 139.879V154.5H148.5ZM155.833 154.5V136.167L159.5 132.5V154.5H155.833ZM126.5 145.013V139.833L139.333 127L146.667 134.333L159.5 121.5V126.679L146.667 139.513L139.333 132.179L126.5 145.013Z" fill="#A1C3FB" fill-opacity="0.2"/>
<rect opacity="0.6" x="49" y="-19" width="63" height="63" fill="#146AF5" fill-opacity="0.5"/>
<rect opacity="0.7" x="-14" y="-19" width="63" height="63" fill="#146AF5" fill-opacity="0.5"/>
<rect opacity="0.8" x="-14" y="44" width="63" height="63" fill="#146AF5" fill-opacity="0.5"/>
<rect opacity="0.6" x="-14" y="107" width="63" height="63" fill="#146AF5" fill-opacity="0.5"/>
<rect opacity="0.33" x="112" y="-19" width="63" height="63" fill="#146AF5" fill-opacity="0.5"/>
<rect opacity="0.5" x="112" y="44" width="63" height="63" fill="#146AF5" fill-opacity="0.5"/>
<rect opacity="0.5" x="112" y="107" width="63" height="63" fill="#146AF5" fill-opacity="0.5"/>
<rect opacity="0.3" x="175" y="-19" width="63" height="63" fill="#146AF5" fill-opacity="0.5"/>
<rect opacity="0.4" x="175" y="44" width="63" height="63" fill="#146AF5" fill-opacity="0.5"/>
<rect opacity="0.3" x="175" y="107" width="63" height="63" fill="#146AF5" fill-opacity="0.5"/>
<rect opacity="0.2" x="238" y="-19" width="63" height="63" fill="#146AF5" fill-opacity="0.5"/>
<rect opacity="0.4" x="238" y="44" width="63" height="63" fill="#146AF5" fill-opacity="0.5"/>
<rect opacity="0.2" x="238" y="107" width="63" height="63" fill="#146AF5" fill-opacity="0.5"/>
<rect opacity="0.2" x="364" y="-19" width="63" height="63" fill="#146AF5" fill-opacity="0.5"/>
<rect opacity="0.15" x="490" y="44" width="63" height="63" fill="#146AF5" fill-opacity="0.1"/>
<rect opacity="0.2" x="364" y="44" width="63" height="63" fill="#146AF5" fill-opacity="0.1"/>
<rect opacity="0.1" x="427" y="107" width="63" height="63" fill="#146AF5" fill-opacity="0.2"/>
<rect opacity="0.1" x="427" y="-19" width="63" height="63" fill="#146AF5" fill-opacity="0.1"/>
<rect x="364" y="107" width="63" height="63" fill="#146AF5" fill-opacity="0.2"/>
<rect opacity="0.3" x="301" y="-19" width="63" height="63" fill="#146AF5" fill-opacity="0.5"/>
<rect opacity="0.2" x="301" y="44" width="63" height="63" fill="#146AF5" fill-opacity="0.5"/>
<rect opacity="0.3" x="301" y="107" width="63" height="63" fill="#146AF5" fill-opacity="0.5"/>
<rect opacity="0.2" width="63" height="63" transform="matrix(-1 0 0 1 1000 -19)" fill="#BA20E9" fill-opacity="0.5"/>
<rect opacity="0.4" width="63" height="63" transform="matrix(-1 0 0 1 1000 44)" fill="#BA20E9" fill-opacity="0.5"/>
<rect opacity="0.2" width="63" height="63" transform="matrix(-1 0 0 1 1000 107)" fill="#BA20E9" fill-opacity="0.5"/>
<rect opacity="0.2" width="63" height="63" transform="matrix(-1 0 0 1 874 -19)" fill="#BA20E9" fill-opacity="0.5"/>
<rect opacity="0.2" width="63" height="63" transform="matrix(-1 0 0 1 874 44)" fill="#BA20E9" fill-opacity="0.1"/>
<rect opacity="0.1" width="63" height="63" transform="matrix(-1 0 0 1 811 107)" fill="#BA20E9" fill-opacity="0.2"/>
<rect opacity="0.1" width="63" height="63" transform="matrix(-1 0 0 1 811 -19)" fill="#BA20E9" fill-opacity="0.1"/>
<rect width="63" height="63" transform="matrix(-1 0 0 1 874 107)" fill="#BA20E9" fill-opacity="0.2"/>
<rect opacity="0.3" width="63" height="63" transform="matrix(-1 0 0 1 937 -19)" fill="#BA20E9" fill-opacity="0.5"/>
<rect opacity="0.2" width="63" height="63" transform="matrix(-1 0 0 1 937 44)" fill="#BA20E9" fill-opacity="0.5"/>
<rect opacity="0.3" width="63" height="63" transform="matrix(-1 0 0 1 937 107)" fill="#BA20E9" fill-opacity="0.5"/>
<rect opacity="0.4" x="49" y="107" width="63" height="63" fill="#146AF5" fill-opacity="0.5"/>
<path d="M451.408 70.396C449.23 70.396 447.327 69.901 445.699 68.911C444.071 67.921 442.806 66.535 441.904 64.753C441.002 62.971 440.551 60.892 440.551 58.516C440.551 56.162 441.002 54.083 441.904 52.279C442.828 50.475 444.137 49.067 445.831 48.055C447.547 47.021 449.571 46.504 451.903 46.504C454.521 46.504 456.71 47.142 458.47 48.418C460.23 49.672 461.363 51.421 461.869 53.665H458.107C457.777 52.389 457.084 51.388 456.028 50.662C454.972 49.914 453.586 49.54 451.87 49.54C450.242 49.54 448.823 49.903 447.613 50.629C446.425 51.355 445.512 52.389 444.874 53.731C444.236 55.073 443.917 56.668 443.917 58.516C443.917 60.386 444.236 61.992 444.874 63.334C445.512 64.676 446.414 65.699 447.58 66.403C448.746 67.107 450.088 67.459 451.606 67.459C453.938 67.459 455.687 66.788 456.853 65.446C458.041 64.104 458.734 62.311 458.932 60.067H452.563V57.526H462.265V70H459.262L458.965 66.469C458.437 67.327 457.821 68.053 457.117 68.647C456.435 69.219 455.632 69.659 454.708 69.967C453.784 70.253 452.684 70.396 451.408 70.396ZM474.035 70.396C472.473 70.396 471.065 70.033 469.811 69.307C468.579 68.581 467.6 67.569 466.874 66.271C466.17 64.951 465.818 63.433 465.818 61.717C465.818 59.957 466.181 58.428 466.907 57.13C467.633 55.81 468.623 54.787 469.877 54.061C471.131 53.335 472.539 52.972 474.101 52.972C475.685 52.972 477.093 53.335 478.325 54.061C479.557 54.787 480.525 55.799 481.229 57.097C481.955 58.395 482.318 59.924 482.318 61.684C482.318 63.444 481.955 64.973 481.229 66.271C480.525 67.569 479.546 68.581 478.292 69.307C477.038 70.033 475.619 70.396 474.035 70.396ZM474.035 67.558C474.937 67.558 475.751 67.338 476.477 66.898C477.225 66.458 477.819 65.809 478.259 64.951C478.721 64.071 478.952 62.982 478.952 61.684C478.952 60.386 478.732 59.308 478.292 58.45C477.852 57.57 477.258 56.91 476.51 56.47C475.784 56.03 474.981 55.81 474.101 55.81C473.221 55.81 472.407 56.03 471.659 56.47C470.911 56.91 470.306 57.57 469.844 58.45C469.404 59.308 469.184 60.386 469.184 61.684C469.184 62.982 469.404 64.071 469.844 64.951C470.306 65.809 470.9 66.458 471.626 66.898C472.374 67.338 473.177 67.558 474.035 67.558ZM492.42 70C491.364 70 490.451 69.835 489.681 69.505C488.911 69.175 488.317 68.625 487.899 67.855C487.481 67.085 487.272 66.04 487.272 64.72V56.173H484.401V53.368H487.272L487.668 49.21H490.572V53.368H495.291V56.173H490.572V64.753C490.572 65.699 490.77 66.348 491.166 66.7C491.562 67.03 492.244 67.195 493.212 67.195H495.126V70H492.42ZM512.884 70.396C511.52 70.396 510.387 70.165 509.485 69.703C508.583 69.241 507.912 68.625 507.472 67.855C507.032 67.063 506.812 66.216 506.812 65.314C506.812 64.214 507.098 63.279 507.67 62.509C508.242 61.717 509.056 61.112 510.112 60.694C511.168 60.276 512.433 60.067 513.907 60.067H518.23C518.23 59.099 518.087 58.296 517.801 57.658C517.515 57.02 517.086 56.547 516.514 56.239C515.964 55.909 515.26 55.744 514.402 55.744C513.412 55.744 512.565 55.986 511.861 56.47C511.157 56.932 510.717 57.625 510.541 58.549H507.241C507.373 57.383 507.769 56.393 508.429 55.579C509.111 54.743 509.98 54.105 511.036 53.665C512.092 53.203 513.214 52.972 514.402 52.972C515.964 52.972 517.273 53.247 518.329 53.797C519.385 54.347 520.177 55.128 520.705 56.14C521.255 57.13 521.53 58.318 521.53 59.704V70H518.659L518.395 67.195C518.153 67.635 517.867 68.053 517.537 68.449C517.207 68.845 516.811 69.186 516.349 69.472C515.909 69.758 515.392 69.978 514.798 70.132C514.226 70.308 513.588 70.396 512.884 70.396ZM513.511 67.723C514.215 67.723 514.853 67.58 515.425 67.294C515.997 67.008 516.481 66.623 516.877 66.139C517.295 65.633 517.603 65.072 517.801 64.456C518.021 63.818 518.142 63.169 518.164 62.509V62.41H514.237C513.291 62.41 512.521 62.531 511.927 62.773C511.355 62.993 510.937 63.301 510.673 63.697C510.409 64.093 510.277 64.555 510.277 65.083C510.277 65.633 510.398 66.106 510.64 66.502C510.904 66.876 511.278 67.173 511.762 67.393C512.246 67.613 512.829 67.723 513.511 67.723ZM534.185 70V53.368H537.155L537.452 56.503C537.826 55.755 538.31 55.128 538.904 54.622C539.498 54.094 540.191 53.687 540.983 53.401C541.797 53.115 542.721 52.972 543.755 52.972V56.47H542.567C541.885 56.47 541.236 56.558 540.62 56.734C540.004 56.888 539.454 57.163 538.97 57.559C538.508 57.955 538.145 58.494 537.881 59.176C537.617 59.858 537.485 60.705 537.485 61.717V70H534.185ZM553.893 70.396C552.331 70.396 550.923 70.033 549.669 69.307C548.437 68.581 547.458 67.569 546.732 66.271C546.028 64.951 545.676 63.433 545.676 61.717C545.676 59.957 546.039 58.428 546.765 57.13C547.491 55.81 548.481 54.787 549.735 54.061C550.989 53.335 552.397 52.972 553.959 52.972C555.543 52.972 556.951 53.335 558.183 54.061C559.415 54.787 560.383 55.799 561.087 57.097C561.813 58.395 562.176 59.924 562.176 61.684C562.176 63.444 561.813 64.973 561.087 66.271C560.383 67.569 559.404 68.581 558.15 69.307C556.896 70.033 555.477 70.396 553.893 70.396ZM553.893 67.558C554.795 67.558 555.609 67.338 556.335 66.898C557.083 66.458 557.677 65.809 558.117 64.951C558.579 64.071 558.81 62.982 558.81 61.684C558.81 60.386 558.59 59.308 558.15 58.45C557.71 57.57 557.116 56.91 556.368 56.47C555.642 56.03 554.839 55.81 553.959 55.81C553.079 55.81 552.265 56.03 551.517 56.47C550.769 56.91 550.164 57.57 549.702 58.45C549.262 59.308 549.042 60.386 549.042 61.684C549.042 62.982 549.262 64.071 549.702 64.951C550.164 65.809 550.758 66.458 551.484 66.898C552.232 67.338 553.035 67.558 553.893 67.558ZM573.647 70.396C572.085 70.396 570.677 70.033 569.423 69.307C568.191 68.581 567.212 67.569 566.486 66.271C565.782 64.951 565.43 63.433 565.43 61.717C565.43 59.957 565.793 58.428 566.519 57.13C567.245 55.81 568.235 54.787 569.489 54.061C570.743 53.335 572.151 52.972 573.713 52.972C575.297 52.972 576.705 53.335 577.937 54.061C579.169 54.787 580.137 55.799 580.841 57.097C581.567 58.395 581.93 59.924 581.93 61.684C581.93 63.444 581.567 64.973 580.841 66.271C580.137 67.569 579.158 68.581 577.904 69.307C576.65 70.033 575.231 70.396 573.647 70.396ZM573.647 67.558C574.549 67.558 575.363 67.338 576.089 66.898C576.837 66.458 577.431 65.809 577.871 64.951C578.333 64.071 578.564 62.982 578.564 61.684C578.564 60.386 578.344 59.308 577.904 58.45C577.464 57.57 576.87 56.91 576.122 56.47C575.396 56.03 574.593 55.81 573.713 55.81C572.833 55.81 572.019 56.03 571.271 56.47C570.523 56.91 569.918 57.57 569.456 58.45C569.016 59.308 568.796 60.386 568.796 61.684C568.796 62.982 569.016 64.071 569.456 64.951C569.918 65.809 570.512 66.458 571.238 66.898C571.986 67.338 572.789 67.558 573.647 67.558ZM585.812 70V53.368H588.782L589.013 55.711C589.541 54.853 590.245 54.182 591.125 53.698C592.005 53.214 592.995 52.972 594.095 52.972C594.931 52.972 595.69 53.093 596.372 53.335C597.054 53.555 597.659 53.896 598.187 54.358C598.715 54.82 599.144 55.392 599.474 56.074C600.068 55.106 600.86 54.347 601.85 53.797C602.862 53.247 603.929 52.972 605.051 52.972C606.393 52.972 607.548 53.247 608.516 53.797C609.484 54.325 610.221 55.128 610.727 56.206C611.233 57.262 611.486 58.582 611.486 60.166V70H608.219V60.496C608.219 58.956 607.9 57.79 607.262 56.998C606.646 56.206 605.733 55.81 604.523 55.81C603.709 55.81 602.983 56.019 602.345 56.437C601.707 56.855 601.201 57.46 600.827 58.252C600.475 59.044 600.299 60.012 600.299 61.156V70H596.999V60.496C596.999 58.956 596.68 57.79 596.042 56.998C595.426 56.206 594.513 55.81 593.303 55.81C592.533 55.81 591.829 56.019 591.191 56.437C590.553 56.855 590.047 57.46 589.673 58.252C589.299 59.044 589.112 60.012 589.112 61.156V70H585.812ZM624.425 70V53.368H627.725V70H624.425ZM626.108 50.233C625.47 50.233 624.942 50.035 624.524 49.639C624.128 49.243 623.93 48.737 623.93 48.121C623.93 47.527 624.128 47.043 624.524 46.669C624.942 46.273 625.47 46.075 626.108 46.075C626.724 46.075 627.241 46.273 627.659 46.669C628.077 47.043 628.286 47.527 628.286 48.121C628.286 48.737 628.077 49.243 627.659 49.639C627.241 50.035 626.724 50.233 626.108 50.233ZM639.836 70.396C638.252 70.396 636.855 70.022 635.645 69.274C634.435 68.504 633.489 67.47 632.807 66.172C632.147 64.852 631.817 63.356 631.817 61.684C631.817 59.99 632.147 58.494 632.807 57.196C633.489 55.898 634.435 54.875 635.645 54.127C636.877 53.357 638.285 52.972 639.869 52.972C641.167 52.972 642.311 53.236 643.301 53.764C644.291 54.27 645.061 54.996 645.611 55.942V46.24H648.911V70H645.941L645.611 67.426C645.281 67.932 644.852 68.416 644.324 68.878C643.796 69.318 643.158 69.681 642.41 69.967C641.662 70.253 640.804 70.396 639.836 70.396ZM640.364 67.525C641.398 67.525 642.311 67.283 643.103 66.799C643.895 66.315 644.5 65.633 644.918 64.753C645.358 63.873 645.578 62.85 645.578 61.684C645.578 60.518 645.358 59.506 644.918 58.648C644.5 57.768 643.895 57.086 643.103 56.602C642.311 56.096 641.398 55.843 640.364 55.843C639.374 55.843 638.483 56.096 637.691 56.602C636.899 57.086 636.283 57.768 635.843 58.648C635.403 59.506 635.183 60.518 635.183 61.684C635.183 62.85 635.403 63.873 635.843 64.753C636.283 65.633 636.899 66.315 637.691 66.799C638.483 67.283 639.374 67.525 640.364 67.525ZM660.948 70.396C659.364 70.396 657.956 70.033 656.724 69.307C655.492 68.581 654.524 67.569 653.82 66.271C653.138 64.973 652.797 63.466 652.797 61.75C652.797 59.99 653.138 58.461 653.82 57.163C654.524 55.843 655.492 54.82 656.724 54.094C657.956 53.346 659.386 52.972 661.014 52.972C662.642 52.972 664.039 53.335 665.205 54.061C666.371 54.787 667.273 55.755 667.911 56.965C668.549 58.153 668.868 59.473 668.868 60.925C668.868 61.145 668.857 61.387 668.835 61.651C668.835 61.893 668.824 62.168 668.802 62.476H655.206V60.133H665.568C665.502 58.747 665.04 57.669 664.182 56.899C663.324 56.107 662.257 55.711 660.981 55.711C660.079 55.711 659.254 55.92 658.506 56.338C657.758 56.734 657.153 57.328 656.691 58.12C656.251 58.89 656.031 59.869 656.031 61.057V61.981C656.031 63.213 656.251 64.258 656.691 65.116C657.153 65.952 657.758 66.59 658.506 67.03C659.254 67.448 660.068 67.657 660.948 67.657C662.004 67.657 662.873 67.426 663.555 66.964C664.237 66.502 664.743 65.875 665.073 65.083H668.373C668.087 66.095 667.603 67.008 666.921 67.822C666.239 68.614 665.392 69.241 664.38 69.703C663.39 70.165 662.246 70.396 660.948 70.396ZM678.045 70.396C676.681 70.396 675.548 70.165 674.646 69.703C673.744 69.241 673.073 68.625 672.633 67.855C672.193 67.063 671.973 66.216 671.973 65.314C671.973 64.214 672.259 63.279 672.831 62.509C673.403 61.717 674.217 61.112 675.273 60.694C676.329 60.276 677.594 60.067 679.068 60.067H683.391C683.391 59.099 683.248 58.296 682.962 57.658C682.676 57.02 682.247 56.547 681.675 56.239C681.125 55.909 680.421 55.744 679.563 55.744C678.573 55.744 677.726 55.986 677.022 56.47C676.318 56.932 675.878 57.625 675.702 58.549H672.402C672.534 57.383 672.93 56.393 673.59 55.579C674.272 54.743 675.141 54.105 676.197 53.665C677.253 53.203 678.375 52.972 679.563 52.972C681.125 52.972 682.434 53.247 683.49 53.797C684.546 54.347 685.338 55.128 685.866 56.14C686.416 57.13 686.691 58.318 686.691 59.704V70H683.82L683.556 67.195C683.314 67.635 683.028 68.053 682.698 68.449C682.368 68.845 681.972 69.186 681.51 69.472C681.07 69.758 680.553 69.978 679.959 70.132C679.387 70.308 678.749 70.396 678.045 70.396ZM678.672 67.723C679.376 67.723 680.014 67.58 680.586 67.294C681.158 67.008 681.642 66.623 682.038 66.139C682.456 65.633 682.764 65.072 682.962 64.456C683.182 63.818 683.303 63.169 683.325 62.509V62.41H679.398C678.452 62.41 677.682 62.531 677.088 62.773C676.516 62.993 676.098 63.301 675.834 63.697C675.57 64.093 675.438 64.555 675.438 65.083C675.438 65.633 675.559 66.106 675.801 66.502C676.065 66.876 676.439 67.173 676.923 67.393C677.407 67.613 677.99 67.723 678.672 67.723ZM693.708 63.103L693.576 57.889H694.764C695.666 57.889 696.513 57.834 697.305 57.724C698.119 57.614 698.834 57.405 699.45 57.097C700.066 56.767 700.55 56.305 700.902 55.711C701.276 55.095 701.463 54.303 701.463 53.335C701.463 52.477 701.287 51.751 700.935 51.157C700.583 50.541 700.077 50.079 699.417 49.771C698.779 49.441 698.042 49.276 697.206 49.276C696.348 49.276 695.589 49.441 694.929 49.771C694.291 50.079 693.796 50.53 693.444 51.124C693.092 51.696 692.916 52.389 692.916 53.203H689.781C689.781 51.883 690.089 50.717 690.705 49.705C691.321 48.693 692.19 47.912 693.312 47.362C694.434 46.79 695.732 46.504 697.206 46.504C698.658 46.504 699.945 46.779 701.067 47.329C702.189 47.879 703.069 48.66 703.707 49.672C704.345 50.684 704.664 51.905 704.664 53.335C704.664 54.919 704.323 56.217 703.641 57.229C702.959 58.219 702.013 58.956 700.803 59.44C699.615 59.902 698.24 60.133 696.678 60.133L696.612 63.103H693.708ZM695.16 70.165C694.522 70.165 693.994 69.967 693.576 69.571C693.18 69.153 692.982 68.658 692.982 68.086C692.982 67.492 693.18 66.997 693.576 66.601C693.994 66.183 694.522 65.974 695.16 65.974C695.798 65.974 696.315 66.183 696.711 66.601C697.107 66.997 697.305 67.492 697.305 68.086C697.305 68.658 697.107 69.153 696.711 69.571C696.315 69.967 695.798 70.165 695.16 70.165ZM441.409 103V79.9H449.296C451.144 79.9 452.662 80.208 453.85 80.824C455.038 81.44 455.918 82.265 456.49 83.299C457.062 84.333 457.348 85.51 457.348 86.83C457.348 88.084 457.062 89.239 456.49 90.295C455.94 91.329 455.071 92.165 453.883 92.803C452.695 93.419 451.166 93.727 449.296 93.727H444.709V103H441.409ZM444.709 90.988H449.164C450.902 90.988 452.134 90.614 452.86 89.866C453.608 89.096 453.982 88.084 453.982 86.83C453.982 85.488 453.608 84.454 452.86 83.728C452.134 83.002 450.902 82.639 449.164 82.639H444.709V90.988ZM460.741 103V79.24H464.041V103H460.741ZM474.083 103.396C472.719 103.396 471.586 103.165 470.684 102.703C469.782 102.241 469.111 101.625 468.671 100.855C468.231 100.063 468.011 99.216 468.011 98.314C468.011 97.214 468.297 96.279 468.869 95.509C469.441 94.717 470.255 94.112 471.311 93.694C472.367 93.276 473.632 93.067 475.106 93.067H479.429C479.429 92.099 479.286 91.296 479 90.658C478.714 90.02 478.285 89.547 477.713 89.239C477.163 88.909 476.459 88.744 475.601 88.744C474.611 88.744 473.764 88.986 473.06 89.47C472.356 89.932 471.916 90.625 471.74 91.549H468.44C468.572 90.383 468.968 89.393 469.628 88.579C470.31 87.743 471.179 87.105 472.235 86.665C473.291 86.203 474.413 85.972 475.601 85.972C477.163 85.972 478.472 86.247 479.528 86.797C480.584 87.347 481.376 88.128 481.904 89.14C482.454 90.13 482.729 91.318 482.729 92.704V103H479.858L479.594 100.195C479.352 100.635 479.066 101.053 478.736 101.449C478.406 101.845 478.01 102.186 477.548 102.472C477.108 102.758 476.591 102.978 475.997 103.132C475.425 103.308 474.787 103.396 474.083 103.396ZM474.71 100.723C475.414 100.723 476.052 100.58 476.624 100.294C477.196 100.008 477.68 99.623 478.076 99.139C478.494 98.633 478.802 98.072 479 97.456C479.22 96.818 479.341 96.169 479.363 95.509V95.41H475.436C474.49 95.41 473.72 95.531 473.126 95.773C472.554 95.993 472.136 96.301 471.872 96.697C471.608 97.093 471.476 97.555 471.476 98.083C471.476 98.633 471.597 99.106 471.839 99.502C472.103 99.876 472.477 100.173 472.961 100.393C473.445 100.613 474.028 100.723 474.71 100.723ZM486.941 103V86.368H489.911L490.109 89.206C490.637 88.216 491.385 87.435 492.353 86.863C493.321 86.269 494.432 85.972 495.686 85.972C497.006 85.972 498.139 86.236 499.085 86.764C500.031 87.292 500.768 88.095 501.296 89.173C501.824 90.229 502.088 91.56 502.088 93.166V103H498.788V93.496C498.788 91.956 498.447 90.79 497.765 89.998C497.083 89.206 496.093 88.81 494.795 88.81C493.937 88.81 493.167 89.019 492.485 89.437C491.803 89.833 491.253 90.427 490.835 91.219C490.439 92.011 490.241 92.979 490.241 94.123V103H486.941ZM514.984 103V86.368H518.284V103H514.984ZM516.667 83.233C516.029 83.233 515.501 83.035 515.083 82.639C514.687 82.243 514.489 81.737 514.489 81.121C514.489 80.527 514.687 80.043 515.083 79.669C515.501 79.273 516.029 79.075 516.667 79.075C517.283 79.075 517.8 79.273 518.218 79.669C518.636 80.043 518.845 80.527 518.845 81.121C518.845 81.737 518.636 82.243 518.218 82.639C517.8 83.035 517.283 83.233 516.667 83.233ZM529.867 103C528.811 103 527.898 102.835 527.128 102.505C526.358 102.175 525.764 101.625 525.346 100.855C524.928 100.085 524.719 99.04 524.719 97.72V89.173H521.848V86.368H524.719L525.115 82.21H528.019V86.368H532.738V89.173H528.019V97.753C528.019 98.699 528.217 99.348 528.613 99.7C529.009 100.03 529.691 100.195 530.659 100.195H532.573V103H529.867ZM548.186 103L543.302 86.368H546.569L550.199 100.228L549.572 100.195L553.598 86.368H557.294L561.32 100.195L560.693 100.228L564.29 86.368H567.623L562.739 103H559.34L555.116 88.579H555.776L551.552 103H548.186ZM570.832 103V86.368H574.132V103H570.832ZM572.515 83.233C571.877 83.233 571.349 83.035 570.931 82.639C570.535 82.243 570.337 81.737 570.337 81.121C570.337 80.527 570.535 80.043 570.931 79.669C571.349 79.273 571.877 79.075 572.515 79.075C573.131 79.075 573.648 79.273 574.066 79.669C574.484 80.043 574.693 80.527 574.693 81.121C574.693 81.737 574.484 82.243 574.066 82.639C573.648 83.035 573.131 83.233 572.515 83.233ZM585.715 103C584.659 103 583.746 102.835 582.976 102.505C582.206 102.175 581.612 101.625 581.194 100.855C580.776 100.085 580.567 99.04 580.567 97.72V89.173H577.696V86.368H580.567L580.963 82.21H583.867V86.368H588.586V89.173H583.867V97.753C583.867 98.699 584.065 99.348 584.461 99.7C584.857 100.03 585.539 100.195 586.507 100.195H588.421V103H585.715ZM592.225 103V79.24H595.525V89.074C596.075 88.106 596.834 87.347 597.802 86.797C598.792 86.247 599.881 85.972 601.069 85.972C602.389 85.972 603.522 86.247 604.468 86.797C605.414 87.325 606.14 88.128 606.646 89.206C607.152 90.262 607.405 91.593 607.405 93.199V103H604.138V93.529C604.138 91.989 603.808 90.823 603.148 90.031C602.488 89.217 601.509 88.81 600.211 88.81C599.331 88.81 598.539 89.019 597.835 89.437C597.131 89.855 596.57 90.471 596.152 91.285C595.734 92.077 595.525 93.045 595.525 94.189V103H592.225Z" fill="#146AF5"/>
<path d="M621.277 103V79.9H629.89C631.76 79.9 633.3 80.219 634.51 80.857C635.72 81.495 636.622 82.353 637.216 83.431C637.81 84.487 638.107 85.664 638.107 86.962C638.107 88.194 637.821 89.349 637.249 90.427C636.677 91.483 635.775 92.341 634.543 93.001C633.333 93.639 631.771 93.958 629.857 93.958H625.732V103H621.277ZM633.256 103L628.504 92.836H633.322L638.338 103H633.256ZM625.732 90.724H629.626C630.968 90.724 631.958 90.394 632.596 89.734C633.234 89.074 633.553 88.205 633.553 87.127C633.553 86.049 633.234 85.202 632.596 84.586C631.98 83.948 630.99 83.629 629.626 83.629H625.732V90.724ZM648.983 103.396C647.311 103.396 645.826 103.044 644.528 102.34C643.252 101.614 642.251 100.613 641.525 99.337C640.821 98.039 640.469 96.543 640.469 94.849C640.469 93.111 640.821 91.582 641.525 90.262C642.251 88.92 643.252 87.875 644.528 87.127C645.804 86.357 647.289 85.972 648.983 85.972C650.633 85.972 652.074 86.335 653.306 87.061C654.538 87.787 655.495 88.766 656.177 89.998C656.859 91.23 657.2 92.627 657.2 94.189C657.2 94.409 657.2 94.662 657.2 94.948C657.2 95.212 657.178 95.487 657.134 95.773H643.637V93.067H652.712C652.646 91.989 652.261 91.142 651.557 90.526C650.875 89.91 650.017 89.602 648.983 89.602C648.235 89.602 647.542 89.778 646.904 90.13C646.266 90.46 645.76 90.977 645.386 91.681C645.034 92.385 644.858 93.276 644.858 94.354V95.311C644.858 96.213 645.023 97.005 645.353 97.687C645.705 98.347 646.189 98.864 646.805 99.238C647.421 99.59 648.136 99.766 648.95 99.766C649.764 99.766 650.435 99.59 650.963 99.238C651.513 98.886 651.92 98.435 652.184 97.885H656.738C656.43 98.919 655.913 99.854 655.187 100.69C654.461 101.526 653.57 102.186 652.514 102.67C651.458 103.154 650.281 103.396 648.983 103.396ZM668.901 103.396C667.229 103.396 665.744 103.022 664.446 102.274C663.148 101.526 662.136 100.503 661.41 99.205C660.684 97.907 660.321 96.422 660.321 94.75C660.321 93.034 660.684 91.527 661.41 90.229C662.136 88.909 663.148 87.875 664.446 87.127C665.744 86.357 667.229 85.972 668.901 85.972C671.035 85.972 672.828 86.533 674.28 87.655C675.732 88.777 676.656 90.317 677.052 92.275H672.333C672.135 91.505 671.717 90.9 671.079 90.46C670.463 90.02 669.726 89.8 668.868 89.8C668.098 89.8 667.405 89.998 666.789 90.394C666.195 90.768 665.722 91.329 665.37 92.077C665.04 92.803 664.875 93.672 664.875 94.684C664.875 95.454 664.974 96.147 665.172 96.763C665.37 97.357 665.645 97.874 665.997 98.314C666.349 98.732 666.767 99.051 667.251 99.271C667.757 99.491 668.296 99.601 668.868 99.601C669.44 99.601 669.957 99.502 670.419 99.304C670.903 99.106 671.31 98.831 671.64 98.479C671.97 98.105 672.201 97.654 672.333 97.126H677.052C676.656 99.04 675.721 100.569 674.247 101.713C672.795 102.835 671.013 103.396 668.901 103.396ZM680.993 103V79.9H688.715C691.399 79.9 693.61 80.384 695.348 81.352C697.108 82.298 698.406 83.64 699.242 85.378C700.1 87.094 700.529 89.118 700.529 91.45C700.529 93.782 700.1 95.817 699.242 97.555C698.406 99.271 697.119 100.613 695.381 101.581C693.643 102.527 691.421 103 688.715 103H680.993ZM685.448 99.172H688.484C690.376 99.172 691.861 98.864 692.939 98.248C694.039 97.632 694.82 96.752 695.282 95.608C695.744 94.442 695.975 93.056 695.975 91.45C695.975 89.822 695.744 88.436 695.282 87.292C694.82 86.126 694.039 85.235 692.939 84.619C691.861 84.003 690.376 83.695 688.484 83.695H685.448V99.172ZM712.212 103.396C710.54 103.396 709.055 103.044 707.757 102.34C706.481 101.614 705.48 100.613 704.754 99.337C704.05 98.039 703.698 96.543 703.698 94.849C703.698 93.111 704.05 91.582 704.754 90.262C705.48 88.92 706.481 87.875 707.757 87.127C709.033 86.357 710.518 85.972 712.212 85.972C713.862 85.972 715.303 86.335 716.535 87.061C717.767 87.787 718.724 88.766 719.406 89.998C720.088 91.23 720.429 92.627 720.429 94.189C720.429 94.409 720.429 94.662 720.429 94.948C720.429 95.212 720.407 95.487 720.363 95.773H706.866V93.067H715.941C715.875 91.989 715.49 91.142 714.786 90.526C714.104 89.91 713.246 89.602 712.212 89.602C711.464 89.602 710.771 89.778 710.133 90.13C709.495 90.46 708.989 90.977 708.615 91.681C708.263 92.385 708.087 93.276 708.087 94.354V95.311C708.087 96.213 708.252 97.005 708.582 97.687C708.934 98.347 709.418 98.864 710.034 99.238C710.65 99.59 711.365 99.766 712.179 99.766C712.993 99.766 713.664 99.59 714.192 99.238C714.742 98.886 715.149 98.435 715.413 97.885H719.967C719.659 98.919 719.142 99.854 718.416 100.69C717.69 101.526 716.799 102.186 715.743 102.67C714.687 103.154 713.51 103.396 712.212 103.396ZM727.888 103L721.783 86.368H726.469L730.594 98.809L734.719 86.368H739.372L733.3 103H727.888Z" fill="url(#paint1_linear_1_74)"/>
<mask id="mask1_1_74" style="mask-type:alpha" maskUnits="userSpaceOnUse" x="874" y="44" width="63" height="63">
<rect x="874" y="44" width="63" height="63" fill="#146AF5"/>
</mask>
<g mask="url(#mask1_1_74)">
<rect x="874" y="44" width="63" height="63" fill="url(#paint2_linear_1_74)"/>
<mask id="mask2_1_74" style="mask-type:alpha" maskUnits="userSpaceOnUse" x="889" y="44" width="48" height="60">
<path d="M937 44V104H917.5V95L913 90.5L889 66.5V44H937Z" fill="#D9D9D9"/>
</mask>
<g mask="url(#mask2_1_74)">
<path d="M937 47H901C899.343 47 898 48.3431 898 50V95C898 96.6569 899.343 98 901 98H937M898 59H934" stroke="white" stroke-width="6" stroke-linecap="square"/>
<path d="M898 80C898 80 907 87.5 920.5 87.5C934 87.5 943 80 943 80" stroke="white" stroke-width="6" stroke-linecap="round"/>
<path d="M928 65V74M913 65V74" stroke="white" stroke-width="6" stroke-linecap="square"/>
</g>
<path d="M915.379 100.121C916.55 101.293 918.45 101.293 919.621 100.121C920.793 98.9497 920.793 97.0503 919.621 95.8787L915.379 100.121ZM889.621 65.8787L887.5 63.7574L883.257 68L885.379 70.1213L889.621 65.8787ZM919.621 95.8787L889.621 65.8787L885.379 70.1213L915.379 100.121L919.621 95.8787Z" fill="white"/>
<path d="M882.121 58.3787C880.95 57.2071 879.05 57.2071 877.879 58.3787C876.707 59.5503 876.707 61.4497 877.879 62.6213L882.121 58.3787ZM877.879 62.6213L879.379 64.1213L883.621 59.8787L882.121 58.3787L877.879 62.6213Z" fill="white"/>
<path d="M923.5 98C923.5 98 928 98 907 98C886 98 895 84.5 874 84.5" stroke="white" stroke-width="6"/>
</g>
<path d="M379.5 155.5V151.833H383.167V122.5H401.5V124.333H408.833V151.833H412.5V155.5H405.167V128H401.5V155.5H379.5ZM394.167 140.833C394.686 140.833 395.122 140.658 395.473 140.306C395.824 139.955 396 139.519 396 139C396 138.481 395.824 138.045 395.473 137.694C395.122 137.342 394.686 137.167 394.167 137.167C393.647 137.167 393.212 137.342 392.86 137.694C392.509 138.045 392.333 138.481 392.333 139C392.333 139.519 392.509 139.955 392.86 140.306C393.212 140.658 393.647 140.833 394.167 140.833ZM386.833 151.833H397.833V126.167H386.833V151.833Z" fill="#A1C3FB" fill-opacity="0.2"/>
<path d="M67.1667 27.6667V13H61.6667L80 -3.5L87.3333 3.1V-1.66667H92.8333V8.05L98.3333 13H92.8333V27.6667H81.8333V16.6667H78.1667V27.6667H67.1667ZM70.8333 24H74.5V13H85.5V24H89.1667V9.7L80 1.45L70.8333 9.7V24ZM76.3333 9.37917H83.6667C83.6667 8.40139 83.3 7.5993 82.5667 6.97292C81.8333 6.34653 80.9778 6.03333 80 6.03333C79.0222 6.03333 78.1667 6.34653 77.4333 6.97292C76.7 7.5993 76.3333 8.40139 76.3333 9.37917Z" fill="#A1C3FB" fill-opacity="0.2"/>
<path d="M329.433 20.425L342.358 7.5L339.792 4.93334L329.433 15.2917L324.208 10.0667L321.642 12.6333L329.433 20.425ZM319.167 29.5C318.158 29.5 317.295 29.141 316.577 28.4229C315.859 27.7049 315.5 26.8417 315.5 25.8333V0.166669C315.5 -0.841664 315.859 -1.70486 316.577 -2.42291C317.295 -3.14097 318.158 -3.5 319.167 -3.5H326.867C327.264 -4.6 327.928 -5.48611 328.86 -6.15833C329.792 -6.83055 330.839 -7.16666 332 -7.16666C333.161 -7.16666 334.208 -6.83055 335.14 -6.15833C336.072 -5.48611 336.736 -4.6 337.133 -3.5H344.833C345.842 -3.5 346.705 -3.14097 347.423 -2.42291C348.141 -1.70486 348.5 -0.841664 348.5 0.166669V25.8333C348.5 26.8417 348.141 27.7049 347.423 28.4229C346.705 29.141 345.842 29.5 344.833 29.5H319.167ZM319.167 25.8333H344.833V0.166669H319.167V25.8333ZM332 -1.20833C332.397 -1.20833 332.726 -1.33819 332.985 -1.59791C333.245 -1.85764 333.375 -2.18611 333.375 -2.58333C333.375 -2.98055 333.245 -3.30903 332.985 -3.56875C332.726 -3.82847 332.397 -3.95833 332 -3.95833C331.603 -3.95833 331.274 -3.82847 331.015 -3.56875C330.755 -3.30903 330.625 -2.98055 330.625 -2.58333C330.625 -2.18611 330.755 -1.85764 331.015 -1.59791C331.274 -1.33819 331.603 -1.20833 332 -1.20833Z" fill="#A1C3FB" fill-opacity="0.2"/>
<path d="M2.33333 91.5V83.7083L26.4875 59.6C26.8542 59.2333 27.2667 58.9583 27.725 58.775C28.1833 58.5917 28.6417 58.5 29.1 58.5C29.5889 58.5 30.0549 58.5917 30.4979 58.775C30.941 58.9583 31.3306 59.2333 31.6667 59.6L34.2333 62.1667C34.6 62.5028 34.875 62.8924 35.0583 63.3354C35.2417 63.7785 35.3333 64.2444 35.3333 64.7333C35.3333 65.1917 35.2417 65.65 35.0583 66.1083C34.875 66.5667 34.6 66.9792 34.2333 67.3458L10.125 91.5H2.33333ZM6 87.8333H8.56667L26.5792 69.8667L25.2958 68.5375L23.9667 67.2542L6 85.2667V87.8333ZM25.2958 68.5375L23.9667 67.2542L26.5792 69.8667L25.2958 68.5375ZM20.6667 91.5C22.9278 91.5 25.0208 90.9347 26.9458 89.8042C28.8708 88.6736 29.8333 87.1 29.8333 85.0833C29.8333 83.9833 29.5431 83.0361 28.9625 82.2417C28.3819 81.4472 27.6028 80.7597 26.625 80.1792L23.9208 82.8833C24.6236 83.1889 25.1736 83.525 25.5708 83.8917C25.9681 84.2583 26.1667 84.6556 26.1667 85.0833C26.1667 85.7861 25.609 86.4201 24.4937 86.9854C23.3785 87.5507 22.1028 87.8333 20.6667 87.8333C20.1472 87.8333 19.7118 88.009 19.3604 88.3604C19.009 88.7118 18.8333 89.1472 18.8333 89.6667C18.8333 90.1861 19.009 90.6215 19.3604 90.9729C19.7118 91.3243 20.1472 91.5 20.6667 91.5ZM3.3875 77.475L6.1375 74.725C5.52639 74.4806 5.04514 74.2285 4.69375 73.9688C4.34236 73.709 4.16667 73.4417 4.16667 73.1667C4.16667 72.8 4.44167 72.4333 4.99167 72.0667C5.54167 71.7 6.70278 71.1347 8.475 70.3708C11.1639 69.2097 12.9514 68.1556 13.8375 67.2083C14.7236 66.2611 15.1667 65.1917 15.1667 64C15.1667 62.3194 14.4944 60.9826 13.15 59.9896C11.8056 58.9965 10.0333 58.5 7.83333 58.5C6.45833 58.5 5.22847 58.7444 4.14375 59.2333C3.05903 59.7222 2.22639 60.3181 1.64583 61.0208C1.30972 61.4181 1.17222 61.8611 1.23333 62.35C1.29444 62.8389 1.52361 63.2361 1.92083 63.5417C2.31806 63.8778 2.76111 64.0153 3.25 63.9542C3.73889 63.8931 4.15139 63.6944 4.4875 63.3583C4.91528 62.9306 5.38889 62.625 5.90833 62.4417C6.42778 62.2583 7.06944 62.1667 7.83333 62.1667C9.08611 62.1667 10.0104 62.35 10.6062 62.7167C11.2021 63.0833 11.5 63.5111 11.5 64C11.5 64.4278 11.2326 64.8174 10.6979 65.1688C10.1632 65.5201 8.93333 66.1389 7.00833 67.025C4.56389 68.0944 2.86806 69.0646 1.92083 69.9354C0.973611 70.8063 0.5 71.8833 0.5 73.1667C0.5 74.1444 0.759722 74.9771 1.27917 75.6646C1.79861 76.3521 2.50139 76.9556 3.3875 77.475Z" fill="#A1C3FB" fill-opacity="0.2"/>
<path d="M893.175 25.8333L886.667 19.325L889.233 16.7583L893.129 20.6542L900.921 12.8625L903.488 15.475L893.175 25.8333ZM893.175 11.1667L886.667 4.65833L889.233 2.09166L893.129 5.9875L900.921 -1.80417L903.488 0.808331L893.175 11.1667ZM906.833 22.1667V18.5H923.333V22.1667H906.833ZM906.833 7.5V3.83333H923.333V7.5H906.833Z" fill="#E3A6F6" fill-opacity="0.2"/>
<path d="M956.167 155.5C955.158 155.5 954.295 155.141 953.577 154.423C952.859 153.705 952.5 152.842 952.5 151.833V126.167C952.5 125.158 952.859 124.295 953.577 123.577C954.295 122.859 955.158 122.5 956.167 122.5H963.867C964.264 121.4 964.928 120.514 965.86 119.842C966.792 119.169 967.839 118.833 969 118.833C970.161 118.833 971.208 119.169 972.14 119.842C973.072 120.514 973.736 121.4 974.133 122.5H981.833C982.842 122.5 983.705 122.859 984.423 123.577C985.141 124.295 985.5 125.158 985.5 126.167V151.833C985.5 152.842 985.141 153.705 984.423 154.423C983.705 155.141 982.842 155.5 981.833 155.5H956.167ZM956.167 151.833H981.833V126.167H956.167V151.833ZM959.833 148.167H972.667V144.5H959.833V148.167ZM959.833 140.833H978.167V137.167H959.833V140.833ZM959.833 133.5H978.167V129.833H959.833V133.5ZM969 124.792C969.397 124.792 969.726 124.662 969.985 124.402C970.245 124.142 970.375 123.814 970.375 123.417C970.375 123.019 970.245 122.691 969.985 122.431C969.726 122.172 969.397 122.042 969 122.042C968.603 122.042 968.274 122.172 968.015 122.431C967.755 122.691 967.625 123.019 967.625 123.417C967.625 123.814 967.755 124.142 968.015 124.402C968.274 124.662 968.603 124.792 969 124.792Z" fill="#E3A6F6" fill-opacity="0.2"/>
</g>
<defs>
<linearGradient id="paint0_linear_1_74" x1="112" y1="44" x2="49" y2="107" gradientUnits="userSpaceOnUse">
<stop stop-color="#146AF5"/>
<stop offset="1" stop-color="#8339ED"/>
</linearGradient>
<linearGradient id="paint1_linear_1_74" x1="619" y1="103" x2="739.576" y2="74.2235" gradientUnits="userSpaceOnUse">
<stop stop-color="#D82E7B"/>
<stop offset="1" stop-color="#BA20E9"/>
</linearGradient>
<linearGradient id="paint2_linear_1_74" x1="937" y1="44" x2="874" y2="107" gradientUnits="userSpaceOnUse">
<stop stop-color="#BA20E9"/>
<stop offset="1" stop-color="#D82E7B"/>
</linearGradient>
<clipPath id="clip0_1_74">
<rect width="1000" height="150" fill="white"/>
</clipPath>
</defs>
</svg>
