<svg width="490" height="150" viewBox="0 0 490 150" fill="none" xmlns="http://www.w3.org/2000/svg">
<g clip-path="url(#clip0_1_36)">
<rect width="490" height="150" fill="#19212C"/>
<path d="M134.16 78V44.4H146.592C148.96 44.4 150.912 44.784 152.448 45.552C154.016 46.288 155.2 47.312 156 48.624C156.8 49.904 157.2 51.36 157.2 52.992C157.2 54.688 156.816 56.112 156.048 57.264C155.312 58.416 154.336 59.312 153.12 59.952C151.936 60.56 150.656 60.912 149.28 61.008L150 60.528C151.44 60.56 152.768 60.96 153.984 61.728C155.2 62.464 156.16 63.456 156.864 64.704C157.6 65.952 157.968 67.328 157.968 68.832C157.968 70.56 157.536 72.128 156.672 73.536C155.84 74.912 154.608 76 152.976 76.8C151.344 77.6 149.344 78 146.976 78H134.16ZM138.96 74.016H146.4C148.48 74.016 150.112 73.536 151.296 72.576C152.48 71.584 153.072 70.192 153.072 68.4C153.072 66.64 152.464 65.232 151.248 64.176C150.032 63.12 148.384 62.592 146.304 62.592H138.96V74.016ZM138.96 58.896H146.064C148.08 58.896 149.616 58.432 150.672 57.504C151.728 56.544 152.256 55.232 152.256 53.568C152.256 51.968 151.728 50.704 150.672 49.776C149.616 48.816 148.032 48.336 145.92 48.336H138.96V58.896ZM161.582 78V44.4H166.382V78H161.582ZM179.411 78.576C177.555 78.576 175.939 78.192 174.562 77.424C173.187 76.624 172.115 75.44 171.347 73.872C170.611 72.304 170.243 70.32 170.243 67.92V54.192H175.043V67.44C175.043 69.744 175.523 71.504 176.483 72.72C177.475 73.904 178.915 74.496 180.803 74.496C182.115 74.496 183.267 74.192 184.259 73.584C185.251 72.944 186.035 72.032 186.611 70.848C187.219 69.632 187.523 68.192 187.523 66.528V54.192H192.323V78H188.147L187.715 74.256H187.523C186.723 75.536 185.651 76.576 184.307 77.376C182.963 78.176 181.331 78.576 179.411 78.576ZM207.402 78.576C205.066 78.576 203.002 78.064 201.21 77.04C199.418 75.984 198.01 74.528 196.986 72.672C195.962 70.816 195.45 68.64 195.45 66.144C195.45 63.648 195.946 61.472 196.938 59.616C197.962 57.728 199.37 56.256 201.162 55.2C202.986 54.144 205.082 53.616 207.45 53.616C209.818 53.616 211.85 54.144 213.546 55.2C215.242 56.224 216.554 57.584 217.482 59.28C218.442 60.976 218.922 62.864 218.922 64.944C218.922 65.264 218.922 65.616 218.922 66C218.922 66.384 218.89 66.784 218.826 67.2H198.954V63.84H214.122C214.026 61.792 213.354 60.208 212.106 59.088C210.858 57.936 209.29 57.36 207.402 57.36C206.122 57.36 204.922 57.648 203.802 58.224C202.714 58.8 201.834 59.664 201.162 60.816C200.49 61.968 200.154 63.424 200.154 65.184V66.528C200.154 68.288 200.49 69.776 201.162 70.992C201.834 72.176 202.714 73.072 203.802 73.68C204.922 74.288 206.106 74.592 207.354 74.592C208.89 74.592 210.154 74.256 211.146 73.584C212.17 72.88 212.922 71.936 213.402 70.752H218.25C217.802 72.256 217.082 73.6 216.09 74.784C215.098 75.936 213.866 76.864 212.394 77.568C210.954 78.24 209.29 78.576 207.402 78.576ZM222.051 78V44.4H228.531L243.795 72.192H243.987V44.4H248.787V78H242.307L227.043 50.256H226.851V78H222.051ZM264.121 78.576C261.785 78.576 259.721 78.064 257.929 77.04C256.137 75.984 254.729 74.528 253.705 72.672C252.681 70.816 252.169 68.64 252.169 66.144C252.169 63.648 252.665 61.472 253.657 59.616C254.681 57.728 256.089 56.256 257.881 55.2C259.705 54.144 261.801 53.616 264.169 53.616C266.537 53.616 268.569 54.144 270.265 55.2C271.961 56.224 273.273 57.584 274.201 59.28C275.161 60.976 275.641 62.864 275.641 64.944C275.641 65.264 275.641 65.616 275.641 66C275.641 66.384 275.609 66.784 275.545 67.2H255.673V63.84H270.841C270.745 61.792 270.073 60.208 268.825 59.088C267.577 57.936 266.009 57.36 264.121 57.36C262.841 57.36 261.641 57.648 260.521 58.224C259.433 58.8 258.553 59.664 257.881 60.816C257.209 61.968 256.873 63.424 256.873 65.184V66.528C256.873 68.288 257.209 69.776 257.881 70.992C258.553 72.176 259.433 73.072 260.521 73.68C261.641 74.288 262.825 74.592 264.073 74.592C265.609 74.592 266.873 74.256 267.865 73.584C268.889 72.88 269.641 71.936 270.121 70.752H274.969C274.521 72.256 273.801 73.6 272.809 74.784C271.817 75.936 270.585 76.864 269.113 77.568C267.673 78.24 266.009 78.576 264.121 78.576ZM287.985 78.576C286.033 78.576 284.289 78.24 282.753 77.568C281.217 76.896 279.969 75.968 279.009 74.784C278.081 73.568 277.521 72.144 277.329 70.512H282.177C282.369 71.248 282.673 71.952 283.089 72.624C283.537 73.296 284.161 73.856 284.961 74.304C285.793 74.72 286.801 74.928 287.985 74.928C289.041 74.928 289.905 74.784 290.577 74.496C291.281 74.176 291.793 73.76 292.113 73.248C292.465 72.736 292.641 72.176 292.641 71.568C292.641 70.832 292.401 70.24 291.921 69.792C291.473 69.312 290.817 68.912 289.953 68.592C289.121 68.24 288.113 67.904 286.929 67.584C285.937 67.296 284.929 66.992 283.905 66.672C282.881 66.32 281.953 65.904 281.121 65.424C280.289 64.944 279.617 64.32 279.105 63.552C278.593 62.752 278.337 61.776 278.337 60.624C278.337 59.312 278.689 58.128 279.393 57.072C280.129 56.016 281.169 55.184 282.513 54.576C283.857 53.936 285.457 53.616 287.313 53.616C289.937 53.616 292.065 54.256 293.697 55.536C295.361 56.784 296.337 58.592 296.625 60.96H291.969C291.841 59.776 291.361 58.864 290.529 58.224C289.729 57.584 288.641 57.264 287.265 57.264C285.921 57.264 284.881 57.552 284.145 58.128C283.441 58.704 283.089 59.424 283.089 60.288C283.089 60.864 283.281 61.344 283.665 61.728C284.049 62.112 284.641 62.448 285.441 62.736C286.273 62.992 287.297 63.312 288.513 63.696C290.049 64.144 291.489 64.64 292.833 65.184C294.209 65.728 295.313 66.448 296.145 67.344C297.009 68.208 297.441 69.408 297.441 70.944C297.473 72.416 297.089 73.728 296.289 74.88C295.521 76.032 294.433 76.944 293.025 77.616C291.617 78.256 289.937 78.576 287.985 78.576ZM309.23 78C307.726 78 306.398 77.76 305.246 77.28C304.126 76.8 303.262 76 302.654 74.88C302.078 73.76 301.79 72.24 301.79 70.32V57.792H297.662V54.192H301.79L302.318 48.24H306.59V54.192H313.358V57.792H306.59V70.368C306.59 71.872 306.862 72.88 307.406 73.392C307.982 73.904 308.974 74.16 310.382 74.16H313.07V78H309.23Z" fill="#146AF5"/>
<path d="M145.042 106.396C142.776 106.396 140.818 105.901 139.168 104.911C137.518 103.899 136.242 102.502 135.34 100.72C134.46 98.916 134.02 96.826 134.02 94.45C134.02 92.074 134.471 89.995 135.373 88.213C136.275 86.409 137.54 85.012 139.168 84.022C140.818 83.01 142.776 82.504 145.042 82.504C147.704 82.504 149.86 83.131 151.51 84.385C153.16 85.639 154.216 87.41 154.678 89.698H151.609C151.257 88.268 150.542 87.124 149.464 86.266C148.386 85.408 146.912 84.979 145.042 84.979C143.392 84.979 141.951 85.364 140.719 86.134C139.487 86.882 138.53 87.971 137.848 89.401C137.188 90.809 136.858 92.492 136.858 94.45C136.858 96.408 137.188 98.102 137.848 99.532C138.53 100.94 139.487 102.029 140.719 102.799C141.951 103.547 143.392 103.921 145.042 103.921C146.912 103.921 148.397 103.503 149.497 102.667C150.597 101.809 151.323 100.687 151.675 99.301H154.678C154.216 101.523 153.16 103.261 151.51 104.515C149.86 105.769 147.704 106.396 145.042 106.396ZM157.781 106V89.632H160.256L160.487 93.031H160.553C161.015 92.019 161.521 91.249 162.071 90.721C162.621 90.171 163.259 89.786 163.985 89.566C164.733 89.346 165.624 89.236 166.658 89.236V92.14H165.899C165.085 92.14 164.348 92.25 163.688 92.47C163.028 92.668 162.456 92.987 161.972 93.427C161.51 93.845 161.158 94.406 160.916 95.11C160.674 95.814 160.553 96.65 160.553 97.618V106H157.781ZM175.68 106.396C174.118 106.396 172.732 106.044 171.522 105.34C170.312 104.614 169.355 103.613 168.651 102.337C167.969 101.039 167.628 99.532 167.628 97.816C167.628 96.078 167.969 94.571 168.651 93.295C169.333 92.019 170.279 91.029 171.489 90.325C172.721 89.599 174.14 89.236 175.746 89.236C177.352 89.236 178.727 89.599 179.871 90.325C181.015 91.029 181.895 91.964 182.511 93.13C183.127 94.274 183.435 95.528 183.435 96.892C183.435 97.112 183.435 97.354 183.435 97.618C183.435 97.86 183.424 98.135 183.402 98.443H169.707V96.298H180.696C180.63 94.78 180.124 93.603 179.178 92.767C178.254 91.909 177.088 91.48 175.68 91.48C174.734 91.48 173.854 91.689 173.04 92.107C172.226 92.525 171.566 93.141 171.06 93.955C170.576 94.769 170.334 95.803 170.334 97.057V97.981C170.334 99.345 170.587 100.478 171.093 101.38C171.599 102.282 172.259 102.964 173.073 103.426C173.909 103.866 174.778 104.086 175.68 104.086C176.824 104.086 177.781 103.822 178.551 103.294C179.321 102.766 179.882 102.04 180.234 101.116H182.973C182.687 102.128 182.214 103.03 181.554 103.822C180.894 104.614 180.069 105.241 179.079 105.703C178.111 106.165 176.978 106.396 175.68 106.396ZM191.651 106.396C190.331 106.396 189.22 106.165 188.318 105.703C187.438 105.241 186.778 104.625 186.338 103.855C185.92 103.085 185.711 102.249 185.711 101.347C185.711 100.225 185.997 99.279 186.569 98.509C187.163 97.739 187.988 97.156 189.044 96.76C190.122 96.342 191.387 96.133 192.839 96.133H197.261C197.261 95.077 197.096 94.208 196.766 93.526C196.436 92.844 195.963 92.338 195.347 92.008C194.731 91.656 193.994 91.48 193.136 91.48C192.058 91.48 191.123 91.755 190.331 92.305C189.539 92.833 189.055 93.647 188.879 94.747H186.041C186.173 93.559 186.569 92.558 187.229 91.744C187.889 90.93 188.736 90.314 189.77 89.896C190.804 89.456 191.926 89.236 193.136 89.236C194.676 89.236 195.952 89.522 196.964 90.094C197.998 90.644 198.768 91.425 199.274 92.437C199.78 93.427 200.033 94.593 200.033 95.935V106H197.657L197.426 103.129H197.36C197.074 103.635 196.744 104.086 196.37 104.482C195.996 104.878 195.567 105.219 195.083 105.505C194.621 105.791 194.104 106.011 193.532 106.165C192.96 106.319 192.333 106.396 191.651 106.396ZM192.146 104.053C192.96 104.053 193.675 103.899 194.291 103.591C194.929 103.261 195.468 102.821 195.908 102.271C196.348 101.721 196.678 101.105 196.898 100.423C197.14 99.719 197.261 99.004 197.261 98.278H193.07C191.992 98.278 191.123 98.41 190.463 98.674C189.803 98.916 189.33 99.257 189.044 99.697C188.758 100.137 188.615 100.643 188.615 101.215C188.615 101.787 188.747 102.293 189.011 102.733C189.297 103.151 189.704 103.481 190.232 103.723C190.76 103.943 191.398 104.053 192.146 104.053ZM209.27 106C208.28 106 207.422 105.846 206.696 105.538C205.97 105.23 205.409 104.713 205.013 103.987C204.639 103.239 204.452 102.238 204.452 100.984V91.777H201.614V89.632H204.452L204.815 85.705H207.224V89.632H212.042V91.777H207.224V100.984C207.224 102.084 207.433 102.821 207.851 103.195C208.269 103.569 209.006 103.756 210.062 103.756H211.778V106H209.27ZM214.864 106V89.632H217.636V106H214.864ZM216.25 86.2C215.7 86.2 215.238 86.024 214.864 85.672C214.512 85.298 214.336 84.836 214.336 84.286C214.336 83.736 214.512 83.285 214.864 82.933C215.238 82.559 215.7 82.372 216.25 82.372C216.778 82.372 217.229 82.559 217.603 82.933C217.977 83.285 218.164 83.736 218.164 84.286C218.164 84.836 217.977 85.298 217.603 85.672C217.229 86.024 216.778 86.2 216.25 86.2ZM229.082 106.396C227.542 106.396 226.156 106.044 224.924 105.34C223.692 104.636 222.713 103.646 221.987 102.37C221.283 101.072 220.931 99.554 220.931 97.816C220.931 96.078 221.294 94.571 222.02 93.295C222.746 91.997 223.725 90.996 224.957 90.292C226.211 89.588 227.608 89.236 229.148 89.236C230.688 89.236 232.074 89.588 233.306 90.292C234.538 90.996 235.506 91.997 236.21 93.295C236.936 94.571 237.299 96.078 237.299 97.816C237.299 99.554 236.936 101.072 236.21 102.37C235.484 103.646 234.494 104.636 233.24 105.34C232.008 106.044 230.622 106.396 229.082 106.396ZM229.082 104.152C230.028 104.152 230.908 103.921 231.722 103.459C232.536 102.975 233.196 102.271 233.702 101.347C234.208 100.401 234.461 99.224 234.461 97.816C234.461 96.386 234.208 95.209 233.702 94.285C233.218 93.339 232.569 92.635 231.755 92.173C230.941 91.711 230.072 91.48 229.148 91.48C228.224 91.48 227.344 91.711 226.508 92.173C225.694 92.635 225.034 93.339 224.528 94.285C224.022 95.209 223.769 96.386 223.769 97.816C223.769 99.224 224.022 100.401 224.528 101.347C225.034 102.271 225.683 102.975 226.475 103.459C227.289 103.921 228.158 104.152 229.082 104.152ZM240.217 106V89.632H242.692L242.89 92.371H242.989C243.539 91.403 244.287 90.644 245.233 90.094C246.179 89.522 247.29 89.236 248.566 89.236C249.842 89.236 250.953 89.5 251.899 90.028C252.845 90.534 253.582 91.326 254.11 92.404C254.638 93.46 254.902 94.802 254.902 96.43V106H252.13V96.727C252.13 95.033 251.767 93.757 251.041 92.899C250.315 92.041 249.27 91.612 247.906 91.612C246.96 91.612 246.113 91.843 245.365 92.305C244.639 92.767 244.056 93.438 243.616 94.318C243.198 95.176 242.989 96.243 242.989 97.519V106H240.217ZM264.438 106.396C263.14 106.396 261.974 106.176 260.94 105.736C259.906 105.274 259.07 104.636 258.432 103.822C257.816 102.986 257.431 102.007 257.277 100.885H260.115C260.247 101.435 260.478 101.963 260.808 102.469C261.16 102.975 261.633 103.382 262.227 103.69C262.843 103.998 263.591 104.152 264.471 104.152C265.263 104.152 265.901 104.042 266.385 103.822C266.891 103.58 267.265 103.272 267.507 102.898C267.771 102.502 267.903 102.084 267.903 101.644C267.903 101.028 267.738 100.544 267.408 100.192C267.078 99.84 266.605 99.554 265.989 99.334C265.373 99.114 264.636 98.894 263.778 98.674C263.118 98.498 262.447 98.3 261.765 98.08C261.083 97.86 260.456 97.585 259.884 97.255C259.334 96.903 258.883 96.474 258.531 95.968C258.201 95.44 258.036 94.791 258.036 94.021C258.036 93.097 258.278 92.283 258.762 91.579C259.246 90.853 259.928 90.281 260.808 89.863C261.71 89.445 262.766 89.236 263.976 89.236C265.714 89.236 267.133 89.665 268.233 90.523C269.355 91.381 270.004 92.624 270.18 94.252H267.441C267.353 93.372 267.001 92.69 266.385 92.206C265.791 91.722 264.977 91.48 263.943 91.48C262.931 91.48 262.15 91.7 261.6 92.14C261.072 92.558 260.808 93.097 260.808 93.757C260.808 94.197 260.951 94.571 261.237 94.879C261.523 95.165 261.952 95.418 262.524 95.638C263.118 95.836 263.844 96.056 264.702 96.298C265.714 96.584 266.671 96.903 267.573 97.255C268.497 97.585 269.245 98.058 269.817 98.674C270.411 99.29 270.708 100.148 270.708 101.248C270.73 102.26 270.477 103.151 269.949 103.921C269.443 104.691 268.717 105.296 267.771 105.736C266.847 106.176 265.736 106.396 264.438 106.396Z" fill="#146AF5"/>
<rect x="63" y="44" width="63" height="63" fill="url(#paint0_linear_1_36)"/>
<mask id="mask0_1_36" style="mask-type:alpha" maskUnits="userSpaceOnUse" x="63" y="44" width="63" height="63">
<rect x="63" y="44" width="63" height="63" fill="#146AF5"/>
</mask>
<g mask="url(#mask0_1_36)">
<path d="M132 125H135V119H132V125ZM66 56C63 56 63 56.0017 63 56.0037C63 56.0047 63 56.0069 63 56.0089C63 56.0129 63 56.0179 63.0001 56.0238C63.0001 56.0358 63.0002 56.0518 63.0003 56.0716C63.0007 56.1114 63.0013 56.167 63.0024 56.2377C63.0047 56.3792 63.0091 56.5817 63.0178 56.8412C63.0351 57.3599 63.0692 58.1069 63.1365 59.0497C63.2711 60.9341 63.5389 63.6066 64.0721 66.8057C65.1361 73.1897 67.2696 81.7475 71.5667 90.3416C75.8697 98.9475 82.3712 107.645 92.1796 114.184C102.007 120.735 114.975 125 132 125V119C116.025 119 104.243 115.015 95.5078 109.191C86.7538 103.355 80.8803 95.5525 76.9333 87.6584C72.9804 79.7525 70.9889 71.8103 69.9904 65.8193C69.4924 62.8309 69.2445 60.3471 69.1213 58.6222C69.0597 57.7602 69.0294 57.0893 69.0144 56.6413C69.007 56.4173 69.0034 56.2492 69.0016 56.141C69.0008 56.0868 69.0003 56.0477 69.0002 56.024C69.0001 56.0122 69 56.0042 69 56.0002C69 55.9982 69 55.9972 69 55.9971C69 55.9971 69 55.9978 69 55.9978C69 55.9988 69 56 66 56Z" fill="white"/>
<path d="M81 62C81 62 81 107 126 107" stroke="white" stroke-width="6"/>
<path d="M99 72.8462C99 82.1383 106.387 89 115.5 89C124.613 89 132 82.1383 132 72.8462C132 62 124.613 47 115.5 47C106.387 47 99 62 99 72.8462Z" stroke="white" stroke-width="6"/>
</g>
<rect opacity="0.4" width="63" height="63" transform="matrix(-1 0 0 1 378 44)" fill="#BA20E9" fill-opacity="0.5"/>
<path d="M140.5 154.5V150.833L144.167 147.167V154.5H140.5ZM147.833 154.5V143.5L151.5 139.833V154.5H147.833ZM155.167 154.5V139.833L158.833 143.546V154.5H155.167ZM162.5 154.5V143.546L166.167 139.879V154.5H162.5ZM169.833 154.5V136.167L173.5 132.5V154.5H169.833ZM140.5 145.013V139.833L153.333 127L160.667 134.333L173.5 121.5V126.679L160.667 139.513L153.333 132.179L140.5 145.013Z" fill="#A1C3FB" fill-opacity="0.2"/>
<rect opacity="0.6" x="63" y="-19" width="63" height="63" fill="#146AF5" fill-opacity="0.5"/>
<rect opacity="0.7" y="-19" width="63" height="63" fill="#146AF5" fill-opacity="0.5"/>
<rect opacity="0.8" y="44" width="63" height="63" fill="#146AF5" fill-opacity="0.5"/>
<rect opacity="0.6" y="107" width="63" height="63" fill="#146AF5" fill-opacity="0.5"/>
<rect opacity="0.33" x="126" y="-19" width="63" height="63" fill="#146AF5" fill-opacity="0.5"/>
<rect opacity="0.5" x="126" y="44" width="63" height="63" fill="#146AF5" fill-opacity="0.5"/>
<rect opacity="0.5" x="126" y="107" width="63" height="63" fill="#146AF5" fill-opacity="0.5"/>
<rect opacity="0.3" x="189" y="-19" width="63" height="63" fill="#146AF5" fill-opacity="0.5"/>
<rect opacity="0.4" x="189" y="44" width="63" height="63" fill="#146AF5" fill-opacity="0.5"/>
<rect opacity="0.3" x="189" y="107" width="63" height="63" fill="#146AF5" fill-opacity="0.5"/>
<rect opacity="0.2" x="252" y="-19" width="63" height="63" fill="#146AF5" fill-opacity="0.5"/>
<rect opacity="0.4" x="252" y="44" width="63" height="63" fill="#146AF5" fill-opacity="0.5"/>
<rect opacity="0.2" x="252" y="107" width="63" height="63" fill="#146AF5" fill-opacity="0.5"/>
<rect opacity="0.3" x="315" y="-19" width="63" height="63" fill="#146AF5" fill-opacity="0.5"/>
<rect opacity="0.3" x="315" y="107" width="63" height="63" fill="#146AF5" fill-opacity="0.5"/>
<rect opacity="0.4" x="63" y="107" width="63" height="63" fill="#146AF5" fill-opacity="0.5"/>
<path d="M81.1667 27.6667V13H75.6667L94 -3.5L101.333 3.1V-1.66667H106.833V8.05L112.333 13H106.833V27.6667H95.8334V16.6667H92.1667V27.6667H81.1667ZM84.8334 24H88.5V13H99.5V24H103.167V9.7L94 1.45L84.8334 9.7V24ZM90.3334 9.37917H97.6667C97.6667 8.40139 97.3 7.5993 96.5667 6.97292C95.8334 6.34653 94.9778 6.03333 94 6.03333C93.0222 6.03333 92.1667 6.34653 91.4334 6.97292C90.7 7.5993 90.3334 8.40139 90.3334 9.37917Z" fill="#A1C3FB" fill-opacity="0.2"/>
<path d="M218.433 20.425L231.358 7.5L228.792 4.93334L218.433 15.2917L213.208 10.0667L210.642 12.6333L218.433 20.425ZM208.167 29.5C207.158 29.5 206.295 29.141 205.577 28.4229C204.859 27.7049 204.5 26.8417 204.5 25.8333V0.166669C204.5 -0.841664 204.859 -1.70486 205.577 -2.42291C206.295 -3.14097 207.158 -3.5 208.167 -3.5H215.867C216.264 -4.6 216.928 -5.48611 217.86 -6.15833C218.792 -6.83055 219.839 -7.16666 221 -7.16666C222.161 -7.16666 223.208 -6.83055 224.14 -6.15833C225.072 -5.48611 225.736 -4.6 226.133 -3.5H233.833C234.842 -3.5 235.705 -3.14097 236.423 -2.42291C237.141 -1.70486 237.5 -0.841664 237.5 0.166669V25.8333C237.5 26.8417 237.141 27.7049 236.423 28.4229C235.705 29.141 234.842 29.5 233.833 29.5H208.167ZM208.167 25.8333H233.833V0.166669H208.167V25.8333ZM221 -1.20833C221.397 -1.20833 221.726 -1.33819 221.985 -1.59791C222.245 -1.85764 222.375 -2.18611 222.375 -2.58333C222.375 -2.98055 222.245 -3.30903 221.985 -3.56875C221.726 -3.82847 221.397 -3.95833 221 -3.95833C220.603 -3.95833 220.274 -3.82847 220.015 -3.56875C219.755 -3.30903 219.625 -2.98055 219.625 -2.58333C219.625 -2.18611 219.755 -1.85764 220.015 -1.59791C220.274 -1.33819 220.603 -1.20833 221 -1.20833Z" fill="#A1C3FB" fill-opacity="0.2"/>
<path d="M16.3333 91.5V83.7083L40.4875 59.6C40.8542 59.2333 41.2667 58.9583 41.725 58.775C42.1833 58.5917 42.6417 58.5 43.1 58.5C43.5889 58.5 44.0549 58.5917 44.4979 58.775C44.941 58.9583 45.3306 59.2333 45.6667 59.6L48.2333 62.1667C48.6 62.5028 48.875 62.8924 49.0583 63.3354C49.2417 63.7785 49.3333 64.2444 49.3333 64.7333C49.3333 65.1917 49.2417 65.65 49.0583 66.1083C48.875 66.5667 48.6 66.9792 48.2333 67.3458L24.125 91.5H16.3333ZM20 87.8333H22.5667L40.5792 69.8667L39.2958 68.5375L37.9667 67.2542L20 85.2667V87.8333ZM39.2958 68.5375L37.9667 67.2542L40.5792 69.8667L39.2958 68.5375ZM34.6667 91.5C36.9278 91.5 39.0208 90.9347 40.9458 89.8042C42.8708 88.6736 43.8333 87.1 43.8333 85.0833C43.8333 83.9833 43.5431 83.0361 42.9625 82.2417C42.3819 81.4472 41.6028 80.7597 40.625 80.1792L37.9208 82.8833C38.6236 83.1889 39.1736 83.525 39.5708 83.8917C39.9681 84.2583 40.1667 84.6556 40.1667 85.0833C40.1667 85.7861 39.609 86.4201 38.4937 86.9854C37.3785 87.5507 36.1028 87.8333 34.6667 87.8333C34.1472 87.8333 33.7118 88.009 33.3604 88.3604C33.009 88.7118 32.8333 89.1472 32.8333 89.6667C32.8333 90.1861 33.009 90.6215 33.3604 90.9729C33.7118 91.3243 34.1472 91.5 34.6667 91.5ZM17.3875 77.475L20.1375 74.725C19.5264 74.4806 19.0451 74.2285 18.6937 73.9688C18.3424 73.709 18.1667 73.4417 18.1667 73.1667C18.1667 72.8 18.4417 72.4333 18.9917 72.0667C19.5417 71.7 20.7028 71.1347 22.475 70.3708C25.1639 69.2097 26.9514 68.1556 27.8375 67.2083C28.7236 66.2611 29.1667 65.1917 29.1667 64C29.1667 62.3194 28.4944 60.9826 27.15 59.9896C25.8056 58.9965 24.0333 58.5 21.8333 58.5C20.4583 58.5 19.2285 58.7444 18.1437 59.2333C17.059 59.7222 16.2264 60.3181 15.6458 61.0208C15.3097 61.4181 15.1722 61.8611 15.2333 62.35C15.2944 62.8389 15.5236 63.2361 15.9208 63.5417C16.3181 63.8778 16.7611 64.0153 17.25 63.9542C17.7389 63.8931 18.1514 63.6944 18.4875 63.3583C18.9153 62.9306 19.3889 62.625 19.9083 62.4417C20.4278 62.2583 21.0694 62.1667 21.8333 62.1667C23.0861 62.1667 24.0104 62.35 24.6062 62.7167C25.2021 63.0833 25.5 63.5111 25.5 64C25.5 64.4278 25.2326 64.8174 24.6979 65.1688C24.1632 65.5201 22.9333 66.1389 21.0083 67.025C18.5639 68.0944 16.8681 69.0646 15.9208 69.9354C14.9736 70.8063 14.5 71.8833 14.5 73.1667C14.5 74.1444 14.7597 74.9771 15.2792 75.6646C15.7986 76.3521 16.5014 76.9556 17.3875 77.475Z" fill="#A1C3FB" fill-opacity="0.2"/>
<rect opacity="0.2" width="63" height="63" transform="matrix(-1 0 0 1 504 -19)" fill="#BA20E9" fill-opacity="0.5"/>
<rect opacity="0.4" width="63" height="63" transform="matrix(-1 0 0 1 504 44)" fill="#BA20E9" fill-opacity="0.5"/>
<rect opacity="0.2" width="63" height="63" transform="matrix(-1 0 0 1 504 107)" fill="#BA20E9" fill-opacity="0.5"/>
<rect opacity="0.2" width="63" height="63" transform="matrix(-1 0 0 1 378 -19)" fill="#BA20E9" fill-opacity="0.3"/>
<rect opacity="0.2" width="63" height="63" transform="matrix(-1 0 0 1 378 44)" fill="#BA20E9" fill-opacity="0.1"/>
<rect opacity="0.1" width="63" height="63" transform="matrix(-1 0 0 1 315 107)" fill="#BA20E9" fill-opacity="0.2"/>
<rect opacity="0.1" width="63" height="63" transform="matrix(-1 0 0 1 315 -19)" fill="#BA20E9" fill-opacity="0.1"/>
<rect width="63" height="63" transform="matrix(-1 0 0 1 378 107)" fill="#BA20E9" fill-opacity="0.2"/>
<rect opacity="0.3" width="63" height="63" transform="matrix(-1 0 0 1 441 -19)" fill="#BA20E9" fill-opacity="0.5"/>
<rect opacity="0.2" width="63" height="63" transform="matrix(-1 0 0 1 441 44)" fill="#BA20E9" fill-opacity="0.5"/>
<rect opacity="0.3" width="63" height="63" transform="matrix(-1 0 0 1 441 107)" fill="#BA20E9" fill-opacity="0.5"/>
<mask id="mask1_1_36" style="mask-type:alpha" maskUnits="userSpaceOnUse" x="378" y="44" width="63" height="63">
<rect x="378" y="44" width="63" height="63" fill="#146AF5"/>
</mask>
<g mask="url(#mask1_1_36)">
<rect x="378" y="44" width="63" height="63" fill="url(#paint1_linear_1_36)"/>
<mask id="mask2_1_36" style="mask-type:alpha" maskUnits="userSpaceOnUse" x="393" y="44" width="48" height="60">
<path d="M441 44V104H421.5V95L417 90.5L393 66.5V44H441Z" fill="#D9D9D9"/>
</mask>
<g mask="url(#mask2_1_36)">
<path d="M441 47H405C403.343 47 402 48.3431 402 50V95C402 96.6569 403.343 98 405 98H441M402 59H438" stroke="white" stroke-width="6" stroke-linecap="square"/>
<path d="M402 80C402 80 411 87.5 424.5 87.5C438 87.5 447 80 447 80" stroke="white" stroke-width="6" stroke-linecap="round"/>
<path d="M432 65V74M417 65V74" stroke="white" stroke-width="6" stroke-linecap="square"/>
</g>
<path d="M419.379 100.121C420.55 101.293 422.45 101.293 423.621 100.121C424.793 98.9497 424.793 97.0503 423.621 95.8787L419.379 100.121ZM393.621 65.8787L391.5 63.7574L387.257 68L389.379 70.1213L393.621 65.8787ZM423.621 95.8787L393.621 65.8787L389.379 70.1213L419.379 100.121L423.621 95.8787Z" fill="white"/>
<path d="M386.121 58.3787C384.95 57.2071 383.05 57.2071 381.879 58.3787C380.707 59.5503 380.707 61.4497 381.879 62.6213L386.121 58.3787ZM381.879 62.6213L383.379 64.1213L387.621 59.8787L386.121 58.3787L381.879 62.6213Z" fill="white"/>
<path d="M427.5 98C427.5 98 432 98 411 98C390 98 399 84.5 378 84.5" stroke="white" stroke-width="6"/>
</g>
<path d="M397.175 25.8333L390.667 19.325L393.233 16.7583L397.129 20.6542L404.921 12.8625L407.487 15.475L397.175 25.8333ZM397.175 11.1667L390.667 4.65833L393.233 2.09166L397.129 5.9875L404.921 -1.80417L407.487 0.808331L397.175 11.1667ZM410.833 22.1667V18.5H427.333V22.1667H410.833ZM410.833 7.5V3.83333H427.333V7.5H410.833Z" fill="#E3A6F6" fill-opacity="0.2"/>
<path d="M334.167 155.5C333.158 155.5 332.295 155.141 331.577 154.423C330.859 153.705 330.5 152.842 330.5 151.833V126.167C330.5 125.158 330.859 124.295 331.577 123.577C332.295 122.859 333.158 122.5 334.167 122.5H341.867C342.264 121.4 342.928 120.514 343.86 119.842C344.792 119.169 345.839 118.833 347 118.833C348.161 118.833 349.208 119.169 350.14 119.842C351.072 120.514 351.736 121.4 352.133 122.5H359.833C360.842 122.5 361.705 122.859 362.423 123.577C363.141 124.295 363.5 125.158 363.5 126.167V151.833C363.5 152.842 363.141 153.705 362.423 154.423C361.705 155.141 360.842 155.5 359.833 155.5H334.167ZM334.167 151.833H359.833V126.167H334.167V151.833ZM337.833 148.167H350.667V144.5H337.833V148.167ZM337.833 140.833H356.167V137.167H337.833V140.833ZM337.833 133.5H356.167V129.833H337.833V133.5ZM347 124.792C347.397 124.792 347.726 124.662 347.985 124.402C348.245 124.142 348.375 123.814 348.375 123.417C348.375 123.019 348.245 122.691 347.985 122.431C347.726 122.172 347.397 122.042 347 122.042C346.603 122.042 346.274 122.172 346.015 122.431C345.755 122.691 345.625 123.019 345.625 123.417C345.625 123.814 345.755 124.142 346.015 124.402C346.274 124.662 346.603 124.792 347 124.792Z" fill="#E3A6F6" fill-opacity="0.2"/>
</g>
<defs>
<linearGradient id="paint0_linear_1_36" x1="126" y1="44" x2="63" y2="107" gradientUnits="userSpaceOnUse">
<stop stop-color="#146AF5"/>
<stop offset="1" stop-color="#8339ED"/>
</linearGradient>
<linearGradient id="paint1_linear_1_36" x1="441" y1="44" x2="378" y2="107" gradientUnits="userSpaceOnUse">
<stop stop-color="#BA20E9"/>
<stop offset="1" stop-color="#D82E7B"/>
</linearGradient>
<clipPath id="clip0_1_36">
<rect width="490" height="150" fill="white"/>
</clipPath>
</defs>
</svg>
