<?xml version="1.0" encoding="UTF-8" standalone="no"?>
<!-- Created with Inkscape (http://www.inkscape.org/) -->

<svg
   width="286.80801mm"
   height="321.16272mm"
   viewBox="0 0 286.80801 321.16272"
   version="1.1"
   id="svg5"
   xml:space="preserve"
   xmlns:inkscape="http://www.inkscape.org/namespaces/inkscape"
   xmlns:sodipodi="http://sodipodi.sourceforge.net/DTD/sodipodi-0.dtd"
   xmlns="http://www.w3.org/2000/svg"
   xmlns:svg="http://www.w3.org/2000/svg"><sodipodi:namedview
     id="namedview7"
     pagecolor="#ffffff"
     bordercolor="#000000"
     borderopacity="0.25"
     inkscape:showpageshadow="2"
     inkscape:pageopacity="0.0"
     inkscape:pagecheckerboard="0"
     inkscape:deskcolor="#d1d1d1"
     inkscape:document-units="mm"
     showgrid="false" /><defs
     id="defs2" /><g
     inkscape:label="Layer 1"
     inkscape:groupmode="layer"
     id="layer1"
     transform="translate(349.99052,100.6733)"><g
       id="g415"><path
         style="fill:#fdfdfd;stroke-width:0.264583"
         d="m -194.58871,203.2185 c -2.69687,-0.65413 -4.91476,-2.60075 -6.01614,-5.28032 l -0.55703,-1.35522 V 135.46421 74.345458 l 0.59394,-2.33018 c 1.26129,-4.94848 3.39571,-8.80266 6.74264,-12.17534 2.21842,-2.23549 3.04614,-2.82704 7.74467,-5.53492 4.52548,-2.608156 25.06467,-14.371637 26.59062,-15.229363 0.65485,-0.368075 4.40532,-2.512867 8.33438,-4.766202 3.92906,-2.253332 7.50094,-4.299635 7.9375,-4.547338 0.43656,-0.247706 7.81844,-4.47825 16.40416,-9.401212 8.58573,-4.922965 16.80105,-9.624423 18.25625,-10.447687 1.45521,-0.823267 5.92006,-3.37739 9.92188,-5.675834 4.00182,-2.298443 7.81182,-4.480536 8.46667,-4.849092 8.10321,-4.560621 9.20893,-5.309661 9.95936,-6.746608 0.51004,-0.976646 0.51054,-3.622887 0,-4.608447 -0.61735,-1.193802 -2.40482,-2.668494 -3.47871,-2.869953 -2.2252,-0.417449 -2.77654,-0.173435 -13.50976,5.978974 -5.6661,3.247872 -11.49263,6.578582 -12.94783,7.401576 -1.45521,0.822995 -5.92006,3.381082 -9.92188,5.684639 -4.00182,2.303558 -8.46667,4.86178 -9.92187,5.684938 -1.45521,0.823159 -9.67053,5.524529 -18.25625,10.447494 -8.58573,4.922962 -16.01455,9.179081 -16.50847,9.458039 -0.49392,0.278961 -2.9473,1.682613 -5.45195,3.119226 -2.50465,1.436613 -4.95803,2.842959 -5.45195,3.125213 -3.78238,2.161437 -4.81079,2.747637 -5.57869,3.179808 -0.48157,0.271065 -3.73311,2.141114 -7.22561,4.155678 -9.63996,5.560616 -11.90908,6.347433 -18.25625,6.330394 -5.55001,-0.01482 -7.54864,-0.633518 -13.88684,-4.298235 -2.69423,-1.557788 -5.36993,-3.086259 -5.94604,-3.396615 -1.2099,-0.651828 -1.50141,-1.158743 -0.66632,-1.158743 0.50252,0 5.35638,-1.216316 11.50336,-2.882572 23.34231,-6.327412 47.65257,-17.295402 65.54214,-29.570455 11.35999,-7.794752 22.31993,-17.911723 28.89509,-26.672717 4.32962,-5.768936 8.29284,-12.655071 10.24565,-17.80186 0.28985,-0.763985 0.61388,-1.389063 0.72009,-1.389063 0.10617,0 2.21096,1.167887 4.67733,2.595306 2.46636,1.427417 8.71101,5.028295 13.877,8.001947 9.09764,5.2368 9.46777,5.481503 11.78192,7.78959 2.70158,2.694483 4.16266,5.150409 5.20433,8.747922 l 0.60854,2.101694 v 68.262498 68.262502 l -0.61955,1.97297 c -1.74535,5.558 -5.05611,9.65224 -10.09608,12.48524 -1.01623,0.57124 -8.7227,5.00557 -13.49375,7.76436 -6.75134,3.90385 -13.04139,7.53443 -21.96041,12.67542 -5.74808,3.31322 -11.10589,6.4118 -11.90625,6.88578 -0.80037,0.47395 -3.59834,2.09201 -6.21771,3.59569 -2.61938,1.50365 -10.00125,5.76357 -16.40417,9.46647 -6.40291,3.7029 -13.6062,7.86307 -16.00729,9.24486 -2.40109,1.38179 -5.13953,2.96153 -6.08542,3.51054 -10.8744,6.31177 -12.154,7.00607 -13.49375,7.32163 -1.74762,0.41162 -2.35783,0.40794 -4.14245,-0.0249 z m 24.60401,-21.18643 c 0.52085,-0.21762 1.81533,-0.91575 2.87657,-1.55139 1.06127,-0.63563 3.65599,-2.1673 5.76604,-3.40373 10.9088,-6.3922 11.83391,-6.97756 13.41758,-8.48997 1.87568,-1.79129 3.44736,-4.07509 4.50569,-6.54715 l 0.72985,-1.70478 0.0783,-12.68267 0.0783,-12.6827 8.91757,8.88926 c 9.72529,9.69444 9.76207,9.72235 12.11779,9.1944 1.51863,-0.34033 2.19601,-0.65635 5.13416,-2.3953 1.38244,-0.8182 3.70416,-2.17871 5.15937,-3.02339 11.52231,-6.68801 14.88157,-8.79996 16.41242,-10.31835 2.86933,-2.84602 4.83193,-6.64565 5.09037,-9.85513 0.20564,-2.55381 -0.31091,-3.5724 -3.19558,-6.30142 -4.4101,-4.17211 -18.04088,-17.43051 -18.12936,-17.63408 -0.0477,-0.10975 0.61982,-1.06474 1.48336,-2.12217 9.04349,-11.073922 15.08276,-24.381782 16.59827,-36.575132 0.50911,-4.09617 0.50342,-10.165845 -0.0124,-13.347274 -1.42144,-8.764931 -5.98532,-14.346986 -13.3605,-16.341201 -2.3627,-0.63886 -7.79542,-0.630079 -10.83956,0.01752 -3.4195,0.727454 -8.13758,2.382967 -11.72292,4.113427 -2.90996,1.404514 -8.86642,4.79089 -18.96874,10.784232 -3.81445,2.262954 -15.48009,9.117776 -16.80105,9.872396 -4.20409,2.40167 -5.50394,3.31568 -7.1982,5.06132 -1.6329,1.68246 -2.57183,3.02659 -3.45657,4.94837 -1.45431,3.15891 -1.37771,0.003 -1.37482,56.663512 0.003,51.22137 0.0153,52.54746 0.51064,53.63879 0.68585,1.51088 1.84264,2.18604 3.74759,2.18731 0.81896,0 1.91518,-0.17708 2.43604,-0.3947 z m 24.2552,-93.046792 0.003,-9.87732 0.98999,-0.55123 c 0.54452,-0.30319 2.89121,-1.66127 5.21491,-3.01792 7.82704,-4.56975 11.78026,-5.86544 14.15275,-4.63857 1.56086,0.80717 2.17705,4.7852 1.35332,8.73689 -1.11704,5.35882 -6.22009,10.29467 -17.08513,16.52537 -1.60072,0.91795 -3.29736,1.90101 -3.77031,2.18453 l -0.85989,0.51554 0.003,-9.87729 z m -93.92926,89.925292 c -0.81266,-0.30451 -6.78463,-3.69369 -16.66875,-9.45984 -1.67349,-0.97628 -3.93567,-2.28689 -5.02708,-2.9125 -2.09978,-1.20362 -4.64839,-3.55817 -6.00662,-5.54927 -0.73318,-1.07481 -5.4169,-11.02108 -13.57705,-28.83204 -1.56676,-3.41974 -3.21286,-6.9982 -3.65799,-7.95211 -0.44514,-0.95392 -0.96404,-2.08502 -1.15311,-2.51354 -0.29021,-0.65775 -0.36439,1.18637 -0.47606,11.83564 -0.12817,12.22091 -0.14933,12.63758 -0.67781,13.3451 -1.43883,1.9263 -3.5164,2.34048 -6.04638,1.20539 -2.10218,-0.94313 -19.661,-11.20616 -20.87334,-12.20033 -2.58706,-2.12148 -4.76294,-5.32141 -5.74198,-8.44436 -0.51918,-1.65608 -0.52707,-2.4792 -0.52135,-54.371882 0.006,-51.386012 0.0184,-52.71807 0.51378,-53.809381 0.65071,-1.433447 1.85831,-2.185985 3.50995,-2.187289 2.12325,-0.0016 0.56382,-0.841754 28.38192,15.289527 6.40291,3.712951 12.71299,7.464099 14.02238,8.335902 18.1552,12.08786 31.99801,31.220861 36.21866,50.060041 1.03295,4.61068 1.27612,6.82921 1.27612,11.642752 0,6.51944 -0.79635,10.3859 -3.05149,14.81558 -1.33134,2.61509 -4.30114,5.70275 -6.66151,6.92581 -1.92479,0.9974 -5.54436,1.93773 -7.4587,1.93773 -0.77266,0 -1.40484,0.0772 -1.40484,0.17143 0,0.17483 3.23753,7.19907 5.95746,12.92545 0.82943,1.74625 3.14831,6.68734 5.15306,10.98021 2.00475,4.29286 4.85878,10.36505 6.34228,13.49375 1.4835,3.12869 2.98554,6.54296 3.33787,7.58727 1.07228,3.1783 0.78993,5.76093 -0.78907,7.21741 -0.56082,0.51728 -1.03889,0.66585 -2.34921,0.72998 -0.91758,0.0449 -2.05462,-0.0729 -2.57114,-0.26643 z m -29.3949,-89.205752 c 1.32915,-0.68734 1.69448,-1.5915 1.82082,-4.50639 0.21813,-5.03301 -0.80568,-7.77369 -4.27181,-11.43542 -2.77114,-2.92754 -5.93559,-5.24971 -11.82206,-8.67545 -2.6857,-1.563 -5.15241,-3.01032 -5.48159,-3.21628 l -0.5985,-0.37449 0.0693,9.98485 0.0693,9.98487 4.23333,2.4697 c 5.63409,3.28687 7.89661,4.42471 10.65743,5.35972 2.54977,0.86352 4.19953,0.99023 5.32371,0.40889 z m 21.85428,-59.592342 c -4.3306,-2.531689 -12.31669,-7.161472 -14.2875,-8.282903 -0.75196,-0.427879 -5.11006,-2.939436 -13.09688,-7.547676 -1.96453,-1.133499 -6.54843,-3.782949 -10.18645,-5.887672 -3.63803,-2.104721 -9.82928,-5.676612 -13.75834,-7.937532 -3.92906,-2.260923 -7.6567,-4.431771 -8.28365,-4.824111 l -1.1399,-0.713343 0.65073,-0.426379 c 0.35791,-0.234508 2.18055,-1.307137 4.05032,-2.38362 14.98011,-8.624502 25.83149,-14.896037 26.9129,-15.554265 l 1.28831,-0.784169 3.73877,2.17519 c 4.26501,2.481352 11.49035,6.656551 12.8669,7.435199 0.50932,0.288102 3.54541,2.043639 6.74687,3.901197 3.20146,1.857557 6.35662,3.677541 7.01146,4.044407 0.65484,0.366869 5.11189,2.940601 9.90453,5.719408 4.79265,2.778808 8.94462,5.052378 9.22659,5.052378 0.96883,0 11.91601,-6.304931 12.03688,-6.932539 0.0567,-0.29405 -1.93847,-1.582327 -6.87901,-4.44188 -3.82733,-2.21524 -7.73269,-4.480039 -8.67857,-5.032886 -0.94589,-0.552849 -4.75589,-2.752717 -8.46667,-4.888598 -3.71078,-2.135883 -7.40172,-4.270515 -8.20208,-4.743627 -0.80037,-0.473115 -4.8229,-2.804591 -8.93897,-5.18106 -4.11606,-2.376469 -7.39028,-4.409917 -7.27604,-4.518771 0.20699,-0.197223 5.9948,-3.563051 17.80251,-10.352818 3.41974,-1.96645 7.40833,-4.262914 8.86354,-5.103257 1.45521,-0.840343 4.59265,-2.651072 6.9721,-4.023841 2.7789,-1.603233 4.48229,-2.4363 4.76249,-2.329183 0.23995,0.09172 3.17468,1.752576 6.52166,3.690792 3.34698,1.938216 12.03854,6.973774 19.31458,11.190129 23.94159,13.873784 22.55383,13.113006 23.65126,12.965811 1.11686,-0.149802 11.2998,-5.921965 11.54708,-6.545414 0.19646,-0.495339 -0.56888,-1.125656 -3.09546,-2.549366 -1.0672,-0.601358 -7.23866,-4.157819 -13.71434,-7.903244 -6.47567,-3.745426 -15.70302,-9.076172 -20.50521,-11.8461 -9.17061,-5.289666 -11.31416,-6.568257 -11.1887,-6.673866 0.0419,-0.03528 0.90964,-0.53622 1.92829,-1.113208 1.01864,-0.576985 3.87614,-2.21811 6.35,-3.646945 2.47385,-1.428835 4.97417,-2.866014 5.55625,-3.193733 0.58208,-0.327718 4.45161,-2.562711 8.59896,-4.966652 6.74055,-3.907057 7.59677,-4.334989 8.06979,-4.033258 0.29104,0.185647 3.74385,2.188099 7.67291,4.449889 3.92907,2.261791 9.04876,5.213268 11.37709,6.558841 2.32833,1.345571 4.59052,2.649789 5.02708,2.898265 0.43656,0.248475 2.75828,1.584674 5.15938,2.969328 2.40109,1.384658 5.97297,3.444508 7.9375,4.577446 6.19416,3.572152 20.52177,11.868954 21.11293,12.226025 0.63833,0.385583 -4.83487,10.574001 -7.97211,14.840127 -6.26854,8.524137 -13.36897,15.811037 -22.26895,22.853716 -18.23122,14.426639 -43.14124,26.684775 -70.5749,34.729666 -4.4966,1.318623 -18.70408,4.939255 -19.18476,4.88904 -0.10927,-0.01141 -2.3418,-1.273638 -4.96117,-2.804938 z m -73.87558,-43.033622 c -2.43291,-1.480552 -3.65109,-3.886612 -3.60821,-7.126703 0.0278,-2.096936 1.06503,-4.531455 2.52506,-5.926391 0.48147,-0.459999 3.19711,-2.176489 6.03477,-3.814421 2.83766,-1.637933 8.07641,-4.667144 11.64167,-6.731585 8.6827,-5.027663 12.64497,-7.314644 18.78541,-10.842747 2.83766,-1.630428 6.35,-3.653033 7.80521,-4.494675 1.45521,-0.841645 5.74146,-3.316891 9.525,-5.500548 3.78354,-2.183659 10.21292,-5.904169 14.2875,-8.2678 4.07458,-2.363629 7.88458,-4.563536 8.46667,-4.88868 1.12846,-0.630346 5.80707,-3.331599 20.6375,-11.91532 5.09323,-2.947916 9.86763,-5.630553 10.60982,-5.961412 4.11591,-1.83489 9.81945,-2.045303 14.19489,-0.523673 1.75639,0.610803 7.34216,3.547514 7.34216,3.860114 0,0.08466 -3.78023,2.340753 -8.40052,5.013532 -4.62028,2.672776 -10.60317,6.134184 -13.29531,7.692019 -2.69214,1.557833 -5.37104,3.098496 -5.95313,3.423698 -1.09868,0.613812 -5.30016,3.037451 -20.76979,11.981106 -5.02046,2.90255 -10.31875,5.96306 -11.77395,6.801136 -1.45521,0.838078 -3.83646,2.210286 -5.29167,3.049352 -1.45521,0.839068 -3.06255,1.761249 -3.57188,2.049296 -1.09235,0.617775 -6.23539,3.587882 -17.85937,10.313786 -4.65667,2.694456 -8.88339,5.13321 -9.39271,5.419455 -0.91587,0.514728 -5.7495,3.297211 -14.08906,8.110381 -2.36472,1.364793 -6.90424,3.984168 -10.08783,5.820834 -3.18359,1.836666 -5.92203,3.330281 -6.08542,3.319142 -0.16338,-0.01114 -0.91795,-0.398089 -1.67681,-0.859896 z"
         id="path310" /><path
         style="fill:#f48d5b;stroke-width:0.264583"
         d="m -193.93545,203.41368 c 0.191,-0.0764 0.41921,-0.067 0.50713,0.0209 0.0879,0.0879 -0.0684,0.15046 -0.34727,0.13898 -0.30824,-0.0127 -0.37092,-0.0754 -0.15986,-0.15986 z m 2.64583,0 c 0.19101,-0.0764 0.41921,-0.067 0.50713,0.0209 0.0879,0.0879 -0.0684,0.15046 -0.34726,0.13898 -0.30824,-0.0127 -0.37092,-0.0754 -0.15987,-0.15986 z m -8.18623,-3.1927 c -0.32909,-0.41965 -0.31975,-0.42899 0.0999,-0.0999 0.44071,0.34565 0.58089,0.56292 0.36311,0.56292 -0.0549,0 -0.26329,-0.20836 -0.46302,-0.46302 z m -1.77655,-4.03489 c 0,-0.36381 0.0601,-0.51263 0.13346,-0.33073 0.0734,0.1819 0.0734,0.47955 0,0.66146 -0.0734,0.1819 -0.13346,0.0331 -0.13346,-0.33073 z m 30.07112,-13.93907 c 0.191,-0.0764 0.4192,-0.067 0.50712,0.0209 0.0879,0.0879 -0.0684,0.15047 -0.34726,0.13898 -0.30824,-0.0127 -0.37092,-0.0754 -0.15986,-0.15986 z m -4.34115,-0.94375 -0.50404,-0.59531 0.59532,0.50403 c 0.55943,0.47366 0.71575,0.6866 0.50403,0.6866 -0.0502,0 -0.31811,-0.26789 -0.59531,-0.59532 z m -62.2181,-1.96831 c 0.25466,-0.0666 0.67138,-0.0666 0.92604,0 0.25467,0.0665 0.0463,0.12099 -0.46302,0.12099 -0.50932,0 -0.71768,-0.0545 -0.46302,-0.12099 z m 61.18233,-52.86658 c 0,-29.104172 0.0309,-40.971152 0.0687,-26.3711 0.0378,14.60005 0.0378,38.41255 -2e-5,52.91666 -0.0378,14.50412 -0.0687,2.55861 -0.0687,-26.54556 z m -58.33806,52.1553 c 0,-0.0549 0.20836,-0.26329 0.46302,-0.46302 0.41965,-0.32909 0.42901,-0.31975 0.0999,0.0999 -0.34564,0.44071 -0.56291,0.58089 -0.56291,0.36311 z m 1.66318,-4.00114 c 0.002,-0.7276 0.0534,-0.99385 0.11418,-0.59168 0.0608,0.40219 0.0592,0.9975 -0.004,1.32291 -0.0628,0.32544 -0.11256,-0.004 -0.11057,-0.73123 z m -0.31937,-2.1387 c 0.0127,-0.30824 0.0754,-0.37092 0.15985,-0.15986 0.0764,0.191 0.067,0.4192 -0.0209,0.50712 -0.0879,0.0879 -0.15045,-0.0684 -0.13897,-0.34726 z m 84.11661,-2.59141 c 0,-0.0549 0.20836,-0.26329 0.46302,-0.46302 0.41966,-0.32909 0.429,-0.31975 0.0999,0.0999 -0.34565,0.44071 -0.56293,0.58089 -0.56293,0.36311 z m 2.64583,-2.64583 c 0,-0.0549 0.20836,-0.26329 0.46302,-0.46302 0.41966,-0.32909 0.429,-0.31975 0.0999,0.0999 -0.34565,0.44072 -0.56293,0.5809 -0.56293,0.36312 z m -119.89,-5.12562 c -0.3291,-0.41965 -0.31975,-0.42899 0.0999,-0.0999 0.44073,0.34565 0.58089,0.56292 0.36313,0.56292 -0.0549,0 -0.2633,-0.20836 -0.46302,-0.46302 z m 28.49347,-0.25318 c -0.14358,-0.37708 -0.11319,-0.40746 0.14811,-0.14811 0.18083,0.17949 0.26212,0.39298 0.18066,0.47445 -0.0815,0.0814 -0.22941,-0.0654 -0.32877,-0.32634 z m 95.41685,-3.12026 c 0.005,-0.43656 0.0647,-0.58311 0.13179,-0.3257 0.0671,0.25744 0.0627,0.61463 -0.01,0.79375 -0.0725,0.17915 -0.12734,-0.0315 -0.12197,-0.46805 z m 20.00716,-5.60469 c 0.191,-0.0764 0.4192,-0.067 0.50712,0.0209 0.0879,0.0879 -0.0684,0.15047 -0.34726,0.13899 -0.30824,-0.0127 -0.37092,-0.0754 -0.15986,-0.15986 z m -3.81199,-2.26666 -0.50403,-0.59531 0.59531,0.50403 c 0.55944,0.47366 0.71576,0.68659 0.50404,0.68659 -0.0502,0 -0.31811,-0.26789 -0.59532,-0.59531 z m -1.5875,-1.5875 -0.50403,-0.59531 0.59531,0.50403 c 0.55944,0.47366 0.71576,0.68659 0.50404,0.68659 -0.0502,0 -0.31811,-0.26789 -0.59532,-0.59531 z m -163.40468,-0.64376 c 0.19099,-0.0764 0.4192,-0.067 0.50712,0.0209 0.0879,0.0879 -0.0684,0.15046 -0.34727,0.13898 -0.30822,-0.0127 -0.37092,-0.0754 -0.15985,-0.15986 z m 2.11667,0 c 0.19099,-0.0764 0.4192,-0.067 0.50712,0.0209 0.0879,0.0879 -0.0684,0.15046 -0.34727,0.13898 -0.30823,-0.0127 -0.37092,-0.0754 -0.15985,-0.15986 z m 1.90169,-1.00988 c 0.34178,-0.36381 0.68094,-0.66146 0.7537,-0.66146 0.0728,0 -0.14734,0.29765 -0.48912,0.66146 -0.34177,0.3638 -0.68094,0.66145 -0.7537,0.66145 -0.0728,0 0.14734,-0.29765 0.48912,-0.66145 z m 157.79882,0.0661 -0.50403,-0.59531 0.59531,0.50403 c 0.55944,0.47366 0.71576,0.68659 0.50404,0.68659 -0.0502,0 -0.31811,-0.26789 -0.59532,-0.59531 z m -1.5875,-1.5875 -0.50403,-0.59531 0.59531,0.50403 c 0.55944,0.47366 0.71576,0.68659 0.50404,0.68659 -0.0502,0 -0.31811,-0.26789 -0.59532,-0.59531 z m -154.8884,-13.16298 c 0,-6.59694 0.0643,-11.93009 0.143,-11.85143 0.17638,0.17637 0.16064,23.54223 -0.016,23.71884 -0.0699,0.0699 -0.12702,-5.27047 -0.12702,-11.86741 z m 39.8368,11.45463 c -0.14359,-0.37708 -0.1132,-0.40746 0.14811,-0.14811 0.18082,0.17949 0.26212,0.39298 0.18065,0.47445 -0.0815,0.0814 -0.2294,-0.0654 -0.32876,-0.32634 z m 113.32319,-0.0114 c -0.32909,-0.41966 -0.31975,-0.429 0.0999,-0.0999 0.44072,0.34565 0.5809,0.56293 0.36312,0.56293 -0.0549,0 -0.26329,-0.20836 -0.46302,-0.46302 z m -1.5875,-1.5875 c -0.32909,-0.41966 -0.31975,-0.429 0.0999,-0.0999 0.25466,0.19973 0.46302,0.40809 0.46302,0.46302 0,0.21778 -0.21727,0.0776 -0.56292,-0.36311 z m -4.45008,-4.41767 c -1.8069,-1.81123 -3.3827,-3.23297 -3.50176,-3.15937 -0.11907,0.0736 -0.21649,0.008 -0.21649,-0.14642 0,-0.15409 0.091,-0.28019 0.20225,-0.28019 0.11126,0 1.74665,1.54781 3.63421,3.43958 1.88757,1.89177 3.37235,3.43959 3.29951,3.43959 -0.0729,0 -1.61083,-1.48193 -3.41772,-3.29319 z m 58.06196,1.70566 c 0.26339,-0.29104 0.53843,-0.52917 0.61119,-0.52917 0.0728,0 -0.0832,0.23813 -0.34661,0.52917 -0.26339,0.29104 -0.53842,0.52917 -0.61118,0.52917 -0.0728,0 0.0832,-0.23813 0.3466,-0.52917 z m -167.75671,-0.81131 c -0.0959,-0.15521 -0.11766,-0.33894 -0.0483,-0.40831 0.0693,-0.0693 0.1966,0.0576 0.28277,0.2822 0.17891,0.46623 0.0264,0.54822 -0.23447,0.12611 z m 168.94734,-0.32978 c 0,-0.0455 0.38695,-0.43249 0.85989,-0.8599 l 0.8599,-0.77711 -0.77711,0.8599 c -0.72438,0.80156 -0.94268,0.98153 -0.94268,0.77711 z m -14.94896,-1.7693 c 0.56838,-0.58208 1.09297,-1.05833 1.16573,-1.05833 0.0728,0 -0.33277,0.47625 -0.90115,1.05833 -0.56838,0.58209 -1.09297,1.05834 -1.16573,1.05834 -0.0728,0 0.33277,-0.47625 0.90115,-1.05834 z m -219.62931,-1.65364 -0.50403,-0.59532 0.59532,0.50404 c 0.32742,0.2772 0.59531,0.54509 0.59531,0.59531 0,0.21172 -0.21293,0.0554 -0.6866,-0.50403 z m -1.45009,-1.45521 -0.64144,-0.72761 0.72761,0.64143 c 0.40018,0.3528 0.7276,0.68022 0.7276,0.72761 0,0.20751 -0.21426,0.0386 -0.81377,-0.64143 z m 224.27141,-1.20203 c 0.0994,-0.26093 0.24731,-0.40778 0.32877,-0.32634 0.0815,0.0815 1.6e-4,0.29496 -0.18066,0.47445 -0.2613,0.25935 -0.2917,0.22897 -0.14811,-0.14811 z m 1.78747,-6.00787 c 0,-0.94588 0.048,-1.33284 0.10671,-0.85989 0.0587,0.47294 0.0587,1.24685 0,1.71979 -0.0587,0.47294 -0.10671,0.086 -0.10671,-0.8599 z m 15.5466,0.90401 c 0.0127,-0.30824 0.0754,-0.37092 0.15986,-0.15987 0.0764,0.19101 0.067,0.41921 -0.0209,0.50713 -0.0879,0.0879 -0.15047,-0.0684 -0.13898,-0.34726 z m -209.44946,-1.18618 c -0.0959,-0.15521 -0.11766,-0.33894 -0.0483,-0.40831 0.0693,-0.0694 0.1966,0.0576 0.28277,0.2822 0.17891,0.46623 0.0264,0.54822 -0.23447,0.12611 z m 29.44886,-0.43413 c 0.32912,-0.0633 0.80537,-0.0609 1.05833,0.005 0.25297,0.0662 -0.0163,0.118 -0.5984,0.11507 -0.58208,-0.003 -0.78905,-0.0571 -0.45993,-0.12042 z m 2.92387,-0.25818 c 0.19099,-0.0764 0.4192,-0.067 0.50712,0.0209 0.0879,0.0879 -0.0684,0.15047 -0.34727,0.13898 -0.30823,-0.0127 -0.37092,-0.0754 -0.15985,-0.15986 z M -73.89936,59.925668 c 0,-36.452969 0.0307,-51.365547 0.0682,-33.139062 0.0375,18.226484 0.0375,48.051642 0,66.278122 -0.0375,18.226492 -0.0682,3.31391 -0.0682,-33.13906 z m -176.12776,65.700512 c 0.191,-0.0764 0.4192,-0.067 0.50712,0.0209 0.0879,0.0879 -0.0683,0.15046 -0.34726,0.13898 -0.30823,-0.0127 -0.37092,-0.0754 -0.15986,-0.15986 z m -70.19987,-52.603632 c 10e-6,-28.81313 0.0309,-40.561069 0.0687,-26.106548 0.0378,14.454528 0.0378,38.028908 0,52.387498 -0.0378,14.358602 -0.0687,2.532172 -0.0687,-26.28095 z m 227.9335,48.881772 -1.71214,-1.78594 1.78594,1.71214 c 0.98226,0.94168 1.78593,1.74535 1.78593,1.78594 0,0.19473 -0.2694,-0.0533 -1.85973,-1.71214 z m -150.02216,-0.39688 c 1.09643,-1.16819 1.33398,-1.37824 1.33398,-1.17956 0,0.0425 -0.56555,0.60801 -1.25677,1.25677 l -1.25678,1.17956 z m 144.4398,-4.89479 c -0.32909,-0.41966 -0.31975,-0.429 0.0999,-0.0999 0.25466,0.19974 0.46302,0.4081 0.46302,0.46302 0,0.21778 -0.21728,0.0776 -0.56293,-0.36311 z m -2.61972,-2.64583 -1.71214,-1.78594 1.78593,1.71214 c 0.98227,0.94168 1.78594,1.74535 1.78594,1.78594 0,0.19473 -0.2694,-0.0533 -1.85973,-1.71214 z m -136.49646,-2.86631 c 0.0127,-0.30824 0.0754,-0.37092 0.15985,-0.15987 0.0764,0.19101 0.067,0.41921 -0.0209,0.50713 -0.0879,0.0879 -0.15046,-0.0684 -0.13897,-0.34726 z m 0.26458,-1.32292 c 0.0127,-0.30824 0.0754,-0.37092 0.15985,-0.15986 0.0764,0.191 0.067,0.4192 -0.0209,0.50712 -0.0879,0.0879 -0.15045,-0.0684 -0.13897,-0.34726 z m 130.64952,-1.10244 c -0.32909,-0.41966 -0.31975,-0.429 0.0999,-0.0999 0.25466,0.19974 0.46302,0.4081 0.46302,0.46302 0,0.21778 -0.21727,0.0776 -0.56292,-0.36311 z m -130.36405,-0.33073 c 0,-0.3638 0.0601,-0.51263 0.13345,-0.33073 0.0734,0.1819 0.0734,0.47956 0,0.66146 -0.0734,0.1819 -0.13345,0.0331 -0.13345,-0.33073 z m 127.74433,-2.3151 -1.71215,-1.78594 1.78594,1.71214 c 0.98226,0.94168 1.78594,1.74535 1.78594,1.78594 0,0.19473 -0.2694,-0.0533 -1.85973,-1.71214 z m -127.43954,-1.25677 c 0.002,-0.87313 0.0509,-1.19841 0.10977,-0.72287 0.0589,0.47556 0.0577,1.18993 -0.003,1.5875 -0.0604,0.39759 -0.10855,0.008 -0.10707,-0.86463 z m 0.003,-4.894802 c 0,-0.94588 0.048,-1.33284 0.10672,-0.85989 0.0587,0.47294 0.0587,1.246852 0,1.719792 -0.0587,0.47294 -0.10672,0.086 -0.10672,-0.859902 z m 90.25827,-10.71562 c -7e-5,-5.52979 0.035,-7.82958 0.078,-5.11064 0.043,2.71894 0.043,7.24331 1.3e-4,10.05417 -0.0429,2.81085 -0.078,0.58626 -0.0781,-4.94353 z m -90.56576,7.01146 c 0,-0.36381 0.0601,-0.51263 0.13345,-0.33073 0.0734,0.1819 0.0734,0.47955 0,0.66146 -0.0734,0.1819 -0.13345,0.0331 -0.13345,-0.33073 z m -0.28547,-1.74183 c 0.0127,-0.30824 0.0754,-0.37092 0.15985,-0.15987 0.0764,0.19101 0.067,0.41921 -0.0209,0.50713 -0.0879,0.0879 -0.15045,-0.0684 -0.13896,-0.34726 z m -0.79375,-3.96875 c 0.0127,-0.30824 0.0754,-0.37092 0.15985,-0.15987 0.0764,0.19101 0.067,0.41921 -0.0209,0.50713 -0.0879,0.0879 -0.15045,-0.0684 -0.13896,-0.34726 z m -34.48287,-0.55007 c 0.1819,-0.0734 0.47956,-0.0734 0.66146,0 0.1819,0.0734 0.0331,0.13345 -0.33073,0.13345 -0.3638,0 -0.51263,-0.0601 -0.33073,-0.13345 z m 1.86862,-0.006 c 0.191,-0.0764 0.4192,-0.067 0.50712,0.0209 0.0879,0.0879 -0.0684,0.15047 -0.34726,0.13899 -0.30823,-0.0127 -0.37092,-0.0754 -0.15986,-0.15986 z m 139.48503,-0.74525 c 0.34176,-0.3638 0.68093,-0.66146 0.75369,-0.66146 0.0728,0 -0.14735,0.29766 -0.48911,0.66146 -0.34176,0.3638 -0.68093,0.66146 -0.75369,0.66146 -0.0728,0 0.14734,-0.29766 0.48911,-0.66146 z m -138.1125,0.29697 c 0,-0.0549 0.20836,-0.26329 0.46302,-0.46302 0.41964,-0.32909 0.429,-0.31975 0.0999,0.0999 -0.34565,0.44072 -0.56292,0.5809 -0.56292,0.36312 z m 1.07922,-1.64193 c 0.0127,-0.30824 0.0754,-0.37092 0.15985,-0.15986 0.0764,0.191 0.067,0.41921 -0.0209,0.50713 -0.0879,0.0879 -0.15045,-0.0684 -0.13896,-0.34727 z m 0.26458,-1.32291 c 0.0127,-0.30824 0.0754,-0.37092 0.15985,-0.15987 0.0764,0.19101 0.067,0.41921 -0.0209,0.50713 -0.0879,0.0879 -0.15045,-0.0684 -0.13896,-0.34726 z m 140.34057,-0.90357 c 0.26339,-0.29104 0.53843,-0.52916 0.61119,-0.52916 0.0728,0 -0.0832,0.23812 -0.3466,0.52916 -0.2634,0.29104 -0.53843,0.52917 -0.61119,0.52917 -0.0728,0 0.0832,-0.23813 0.3466,-0.52917 z m -140.34057,-3.59391 c 0.0127,-0.30824 0.0754,-0.37092 0.15985,-0.15986 0.0764,0.191 0.067,0.4192 -0.0209,0.50712 -0.0879,0.0879 -0.15045,-0.0684 -0.13896,-0.34726 z m -21.86171,-10.429 c 0,-5.31151 0.0353,-7.4844 0.0785,-4.82865 0.0432,2.65576 0.0432,7.00154 0,9.65729 -0.0432,2.65576 -0.0785,0.48287 -0.0785,-4.82864 z m 21.59713,8.8415 c 0.0127,-0.30824 0.0754,-0.37092 0.15985,-0.15986 0.0764,0.191 0.067,0.4192 -0.0209,0.50712 -0.0879,0.0879 -0.15045,-0.0684 -0.13896,-0.34726 z m 143.66874,-1.05833 c 0.0127,-0.30824 0.0754,-0.37092 0.15986,-0.15987 0.0764,0.19101 0.067,0.41921 -0.0209,0.50713 -0.0879,0.0879 -0.15046,-0.0684 -0.13898,-0.34726 z m 0.30509,-1.69776 c 0,-0.50932 0.0545,-0.71768 0.12099,-0.46302 0.0666,0.25466 0.0666,0.67138 0,0.92604 -0.0665,0.25467 -0.12099,0.0463 -0.12099,-0.46302 z m -77.53274,-2.51354 c 0.005,-0.43656 0.0647,-0.58311 0.13179,-0.3257 0.0671,0.25744 0.0627,0.61463 -0.01,0.79375 -0.0725,0.17915 -0.12734,-0.0315 -0.12197,-0.46805 z m -69.40615,-0.33073 c -0.3291,-0.41965 -0.31975,-0.42899 0.0999,-0.0999 0.44073,0.34565 0.58089,0.56292 0.36313,0.56292 -0.0549,0 -0.2633,-0.20836 -0.46302,-0.46302 z m 146.92907,-0.46302 c 0.005,-0.43656 0.0647,-0.58311 0.13179,-0.3257 0.0671,0.25744 0.0627,0.61463 -0.01,0.79375 -0.0725,0.17915 -0.12734,-0.0315 -0.12197,-0.46805 z m -77.28902,-1.08037 c 0.0127,-0.30824 0.0754,-0.37092 0.15986,-0.15986 0.0764,0.191 0.067,0.4192 -0.0209,0.50712 -0.0879,0.0879 -0.15046,-0.0684 -0.13898,-0.34726 z m -73.07963,-1.89619 c -0.32911,-0.41966 -0.31975,-0.429 0.0999,-0.0999 0.44073,0.34565 0.58089,0.56293 0.36313,0.56293 -0.0549,0 -0.26331,-0.20836 -0.46303,-0.46302 z m 146.28219,-1.04661 c 0.32742,-0.0631 0.8632,-0.0631 1.19062,0 0.32742,0.0631 0.0595,0.11464 -0.59531,0.11464 -0.65484,0 -0.92273,-0.0516 -0.59531,-0.11464 z m 33.95369,-1.02595 c 0.0127,-0.30824 0.0754,-0.37092 0.15986,-0.15986 0.0764,0.191 0.067,0.4192 -0.0209,0.50712 -0.0879,0.0879 -0.15046,-0.0684 -0.13898,-0.34726 z m 0.26458,-1.32292 c 0.0127,-0.30824 0.0754,-0.37092 0.15986,-0.15986 0.0764,0.191 0.067,0.41921 -0.0209,0.50713 -0.0879,0.0879 -0.15047,-0.0684 -0.13899,-0.34727 z m 0.26458,-1.32291 c 0.0127,-0.30824 0.0754,-0.37092 0.15986,-0.15987 0.0764,0.19101 0.0671,0.41921 -0.0209,0.50713 -0.0879,0.0879 -0.15047,-0.0684 -0.13898,-0.34726 z m -79.79275,-0.37484 c 0.26339,-0.29104 0.53843,-0.52917 0.61119,-0.52917 0.0728,0 -0.0832,0.23813 -0.34661,0.52917 -0.26339,0.29104 -0.53842,0.52917 -0.61118,0.52917 -0.0728,0 0.0832,-0.23813 0.3466,-0.52917 z m 80.07824,-1.85208 c 0,-0.36381 0.0601,-0.51263 0.13345,-0.33073 0.0734,0.1819 0.0734,0.47955 0,0.66146 -0.0734,0.1819 -0.13345,0.0331 -0.13345,-0.33073 z m -157.50261,-1.52136 c -0.32911,-0.41965 -0.31975,-0.42899 0.0999,-0.0999 0.44072,0.34565 0.58088,0.56292 0.36312,0.56292 -0.0549,0 -0.2633,-0.20836 -0.46302,-0.46302 z m 157.79214,-1.25677 c 0.003,-0.58208 0.0571,-0.78907 0.12041,-0.45992 0.0633,0.32911 0.0609,0.80536 -0.005,1.05833 -0.0662,0.25294 -0.118,-0.0164 -0.11507,-0.59841 z m -102.98964,0.0324 c 0,-0.0549 0.20836,-0.26329 0.46302,-0.46302 0.41965,-0.32909 0.42899,-0.31975 0.0999,0.0999 -0.34565,0.44072 -0.56292,0.5809 -0.56292,0.36312 z m -56.39,-0.89228 c -0.32911,-0.41966 -0.31975,-0.429 0.0999,-0.0999 0.44073,0.34565 0.58088,0.56293 0.36312,0.56293 -0.0549,0 -0.2633,-0.20836 -0.46302,-0.46302 z m -2.11667,-2.64584 c -0.32911,-0.41965 -0.31975,-0.42899 0.0999,-0.0999 0.44073,0.34565 0.58089,0.56292 0.36312,0.56292 -0.0549,0 -0.2633,-0.20836 -0.46302,-0.46302 z m -1.4466,-1.71979 -0.50403,-0.595312 0.59532,0.504032 c 0.32742,0.2772 0.59531,0.54509 0.59531,0.59531 0,0.21172 -0.21293,0.0554 -0.6866,-0.50403 z m 162.93757,-2.315113 c 0,-0.509323 0.0545,-0.717683 0.12099,-0.463021 0.0666,0.254661 0.0666,0.67138 0,0.926041 -0.0665,0.254662 -0.12099,0.0463 -0.12099,-0.46302 z M -259.76709,52.12046 c -1.08412,-1.091407 -1.9116,-1.984375 -1.83884,-1.984375 0.0728,0 1.0193,0.892968 2.10342,1.984375 1.08413,1.091406 1.9116,1.984375 1.83884,1.984375 -0.0728,0 -1.0193,-0.892969 -2.10342,-1.984375 z m 166.70838,-0.286623 c 0.0127,-0.30824 0.0754,-0.37092 0.15986,-0.159862 0.0764,0.191003 0.067,0.419206 -0.0209,0.507127 -0.0879,0.08792 -0.15046,-0.06837 -0.13898,-0.347265 z M -207.04524,49.94622 c 0.4022,-0.0608 0.99751,-0.05919 1.32292,0.0037 0.32544,0.06278 -0.004,0.112554 -0.73123,0.110569 -0.7276,-0.0026 -0.99385,-0.05337 -0.59169,-0.114194 z m -3.04633,-0.249952 c 0.1819,-0.0734 0.47956,-0.0734 0.66146,0 0.1819,0.0734 0.0331,0.133456 -0.33073,0.133456 -0.3638,0 -0.51263,-0.06006 -0.33073,-0.133456 z m 6.35,0 c 0.1819,-0.0734 0.47956,-0.0734 0.66146,0 0.1819,0.0734 0.0331,0.133456 -0.33073,0.133456 -0.3638,0 -0.51263,-0.06006 -0.33073,-0.133456 z m 1.86862,-0.270087 c 0.191,-0.07644 0.41921,-0.06705 0.50713,0.0209 0.0879,0.08792 -0.0684,0.150469 -0.34727,0.138986 -0.30824,-0.0127 -0.37092,-0.07541 -0.15986,-0.159861 z m -10.84792,-0.264583 c 0.19101,-0.07644 0.41921,-0.06705 0.50713,0.0209 0.0879,0.08792 -0.0684,0.150468 -0.34727,0.138986 -0.30823,-0.0127 -0.37091,-0.07541 -0.15986,-0.159862 z m -51.42849,-1.208326 -0.7771,-0.859896 0.85989,0.777108 c 0.80154,0.724376 0.98151,0.942684 0.77711,0.942684 -0.0455,0 -0.43249,-0.386953 -0.8599,-0.859896 z m -1.86058,-1.5875 -0.50403,-0.595312 0.59532,0.504031 c 0.55944,0.473657 0.71576,0.686594 0.50403,0.686594 -0.0502,0 -0.3181,-0.267891 -0.59532,-0.595313 z m -1.46382,-1.190625 c -0.3291,-0.419655 -0.31975,-0.428995 0.0999,-0.09991 0.44073,0.345652 0.58089,0.562928 0.36313,0.562928 -0.0549,0 -0.2633,-0.208359 -0.46302,-0.463021 z m 170.00341,-4.365625 -0.50403,-0.595312 0.59531,0.504031 c 0.55944,0.473657 0.71575,0.686594 0.50403,0.686594 -0.0502,0 -0.31811,-0.267891 -0.59531,-0.595313 z m -129.27343,-0.114591 c 0.191,-0.07644 0.4192,-0.06705 0.50712,0.0209 0.0879,0.08792 -0.0684,0.150469 -0.34726,0.138986 -0.30824,-0.0127 -0.37092,-0.07541 -0.15986,-0.159861 z m 3.175,-0.79375 c 0.191,-0.07644 0.4192,-0.06705 0.50712,0.0209 0.0879,0.08792 -0.0684,0.150469 -0.34726,0.138986 -0.30824,-0.0127 -0.37092,-0.07541 -0.15986,-0.159861 z m 3.175,-0.79375 c 0.191,-0.07644 0.4192,-0.06704 0.50712,0.0209 0.0879,0.08792 -0.0684,0.150469 -0.34726,0.138986 -0.30824,-0.0127 -0.37092,-0.07541 -0.15986,-0.159861 z m 120.40126,-0.81145 c -0.32909,-0.419646 -0.31975,-0.429004 0.0999,-0.0999 0.25466,0.199721 0.46302,0.408081 0.46302,0.463021 0,0.217768 -0.21728,0.0776 -0.56293,-0.363124 z m -114.58043,-0.776053 c 0.191,-0.07643 0.41921,-0.06703 0.50713,0.02088 0.0879,0.08792 -0.0684,0.150453 -0.34727,0.138965 -0.30824,-0.0127 -0.37092,-0.07539 -0.15986,-0.159851 z m 96.30833,-2.116666 c 0.19101,-0.07643 0.41921,-0.06703 0.50713,0.02087 0.0879,0.08792 -0.0684,0.150453 -0.34726,0.138965 -0.30824,-0.0127 -0.37092,-0.07539 -0.15987,-0.159851 z m 1.32292,-0.264584 c 0.191,-0.07643 0.41921,-0.06703 0.50713,0.02088 0.0879,0.08792 -0.0684,0.150453 -0.34727,0.138965 -0.30824,-0.0127 -0.37092,-0.07539 -0.15986,-0.159851 z m 10.31875,0 c 0.191,-0.07643 0.41921,-0.06703 0.50713,0.02088 0.0879,0.08792 -0.0684,0.150453 -0.34727,0.138965 -0.30824,-0.0127 -0.37092,-0.07539 -0.15986,-0.159851 z m -9.01237,-0.259072 c 0.1819,-0.0734 0.47956,-0.0734 0.66146,0 0.1819,0.0734 0.0331,0.133454 -0.33073,0.133454 -0.3638,0 -0.51263,-0.06006 -0.33073,-0.133454 z m 7.68945,-0.0055 c 0.19101,-0.07643 0.41921,-0.06703 0.50713,0.02088 0.0879,0.08792 -0.0684,0.150452 -0.34726,0.138964 -0.30824,-0.0127 -0.37092,-0.07539 -0.15987,-0.159851 z m -4.63875,-0.278649 c 0.69562,-0.05468 1.76718,-0.05402 2.38125,0.0016 0.61407,0.05549 0.0449,0.100229 -1.26476,0.09942 -1.30969,-7.93e-4 -1.81211,-0.04621 -1.11649,-0.100888 z m -91.66958,-0.250521 c 0.191,-0.07643 0.41921,-0.06703 0.50713,0.02088 0.0879,0.08792 -0.0684,0.150453 -0.34727,0.138965 -0.30824,-0.0127 -0.37092,-0.07539 -0.15986,-0.159851 z m -32.80833,-2.645833 c 0.19099,-0.07643 0.4192,-0.06703 0.50712,0.02088 0.0879,0.08792 -0.0684,0.150452 -0.34727,0.138964 -0.30823,-0.0127 -0.37092,-0.07539 -0.15985,-0.159851 z m -79.38845,-14.823064 c 0.32911,-0.06329 0.80536,-0.06088 1.05833,0.0053 0.25296,0.06622 -0.0163,0.118005 -0.5984,0.115068 -0.58208,-0.0029 -0.78905,-0.05712 -0.45993,-0.120407 z m 90.62173,-12.960808 c 0.25744,-0.06708 0.61463,-0.06267 0.79375,0.0098 0.17915,0.07248 -0.0315,0.127363 -0.46805,0.12197 -0.43656,-0.0054 -0.58311,-0.06469 -0.3257,-0.131773 z m 129.5041,-1.172395 c 0.17949,-0.180822 0.39298,-0.262115 0.47445,-0.180652 0.0814,0.08146 -0.0654,0.229407 -0.32634,0.328766 -0.37708,0.143584 -0.40746,0.113194 -0.14811,-0.148114 z m -117.70556,-5.057029 c 0.19817,-0.252807 0.28884,-0.645943 0.20145,-0.873636 -0.0914,-0.238117 -0.0477,-0.345315 0.10271,-0.252338 0.40429,0.249867 0.31012,0.821282 -0.20148,1.222502 -0.41889,0.328522 -0.42868,0.319326 -0.10268,-0.09653 z m 79.9407,-2.186181 c 0.49366,-0.509323 0.95708,-0.926041 1.02984,-0.926041 0.0728,0 -0.27159,0.416718 -0.76525,0.926041 -0.49366,0.509323 -0.95708,0.926042 -1.02984,0.926042 -0.0728,0 0.27159,-0.416719 0.76525,-0.926042 z m -174.09583,-0.661458 c 0,-0.145521 0.12609,-0.264583 0.2802,-0.264583 0.15411,0 0.20661,0.119062 0.11667,0.264583 -0.0899,0.145521 -0.21602,0.264583 -0.28019,0.264583 -0.0642,0 -0.11668,-0.119062 -0.11668,-0.264583 z m 153.9875,-0.0999 c 0,-0.05494 0.20836,-0.2633 0.46302,-0.463021 0.41966,-0.329107 0.429,-0.319749 0.0999,0.0999 -0.34565,0.44073 -0.56293,0.580888 -0.56293,0.363125 z m 2.64583,-2.116667 c 0,-0.05494 0.20836,-0.2633 0.46302,-0.463021 0.41966,-0.329107 0.429,-0.319749 0.0999,0.0999 -0.34565,0.440729 -0.56293,0.580887 -0.56293,0.363124 z m 77.30011,-0.42927 c 0,-0.363802 0.0601,-0.512631 0.13346,-0.330729 0.0734,0.181901 0.0734,0.479557 0,0.661458 -0.0734,0.181901 -0.13346,0.03307 -0.13346,-0.330729 z m -0.28548,-1.477256 c 0.0127,-0.308227 0.0754,-0.37092 0.15986,-0.159854 0.0764,0.190995 0.067,0.419201 -0.0209,0.507119 -0.0879,0.08792 -0.15047,-0.06835 -0.13899,-0.347265 z m -73.83963,-0.739307 c 0,-0.05494 0.20836,-0.2633 0.46302,-0.463021 0.41966,-0.329107 0.429,-0.319749 0.0999,0.0999 -0.34565,0.44073 -0.56293,0.580888 -0.56293,0.363125 z m 21.16667,-1.355312 c 0.34176,-0.363802 0.68093,-0.661459 0.75369,-0.661459 0.0728,0 -0.14734,0.297657 -0.48911,0.661459 -0.34176,0.363802 -0.68093,0.661458 -0.75369,0.661458 -0.0728,0 0.14735,-0.297656 0.48911,-0.661458 z m -19.31458,-0.215083 c 0,-0.04554 0.38695,-0.432488 0.85989,-0.859896 l 0.8599,-0.777105 -0.77711,0.859896 c -0.72438,0.801545 -0.94268,0.981512 -0.94268,0.777105 z m 21.16666,-1.901584 c 0.34177,-0.363802 0.68093,-0.661458 0.7537,-0.661458 0.0728,0 -0.14735,0.297656 -0.48911,0.661458 -0.34177,0.363802 -0.68093,0.661458 -0.7537,0.661458 -0.0728,0 0.14735,-0.297656 0.48911,-0.661458 z m -197.94208,-1.124475 c -0.32911,-0.419645 -0.31975,-0.429004 0.0999,-0.0999 0.25466,0.19972 0.46302,0.40808 0.46302,0.463021 0,0.217762 -0.21727,0.0776 -0.56292,-0.363125 z m 64.19708,-0.3277 c -0.0927,-0.149982 0.0135,-0.194336 0.24897,-0.103984 0.45837,0.175893 0.54223,0.365538 0.16165,0.365538 -0.13693,0 -0.32171,-0.1177 -0.41062,-0.261554 z m 116.01792,0.161658 c 0,-0.05494 0.20836,-0.2633 0.46302,-0.463021 0.41966,-0.329107 0.429,-0.319749 0.0999,0.0999 -0.34565,0.44073 -0.56293,0.580888 -0.56293,0.363125 z m 19.18229,-0.429271 c 0.26339,-0.291041 0.53843,-0.529166 0.61119,-0.529166 0.0728,0 -0.0832,0.238125 -0.34661,0.529166 -0.26339,0.291042 -0.53842,0.529167 -0.61118,0.529167 -0.0728,0 0.0832,-0.238125 0.3466,-0.529167 z m 37.65352,0.348427 c 0.191,-0.07643 0.4192,-0.06703 0.50712,0.02088 0.0879,0.08792 -0.0684,0.150453 -0.34726,0.138965 -0.30824,-0.0127 -0.37092,-0.07539 -0.15986,-0.159851 z m 2.11666,0 c 0.19101,-0.07643 0.41921,-0.06703 0.50713,0.02088 0.0879,0.08792 -0.0684,0.150453 -0.34726,0.138965 -0.30824,-0.0127 -0.37092,-0.07539 -0.15987,-0.159851 z m -57.89414,-0.960384 c 0,-0.04554 0.38696,-0.432488 0.8599,-0.859896 l 0.85989,-0.777105 -0.7771,0.859896 c -0.72438,0.801544 -0.94269,0.981511 -0.94269,0.777105 z m 20.10834,-1.869189 c 0,-0.05494 0.20836,-0.2633 0.46302,-0.463021 0.41965,-0.329107 0.42899,-0.319749 0.0999,0.0999 -0.34565,0.440729 -0.56292,0.580887 -0.56292,0.363124 z m -17.99167,-0.264583 c 0,-0.05494 0.20836,-0.2633 0.46302,-0.463021 0.41966,-0.329107 0.429,-0.319749 0.0999,0.0999 -0.34565,0.44073 -0.56293,0.580888 -0.56293,0.363125 z m -184.92286,-0.58361 c 0.0127,-0.308226 0.0754,-0.370919 0.15985,-0.159853 0.0764,0.190994 0.067,0.4192 -0.0209,0.507119 -0.0879,0.08792 -0.15045,-0.06835 -0.13897,-0.347266 z m 244.83852,-0.705556 -1.04587,-1.12448 1.12448,1.045885 c 1.04577,0.972661 1.24606,1.203074 1.04587,1.203074 -0.0432,0 -0.54922,-0.506016 -1.12448,-1.124479 z m -244.81763,-1.785938 c 0,-0.363802 0.06,-0.51263 0.13345,-0.330729 0.0734,0.181901 0.0734,0.479557 0,0.661458 -0.0734,0.181901 -0.13345,0.03307 -0.13345,-0.330729 z m 187.81239,-0.132292 c 0.34176,-0.363802 0.68093,-0.661458 0.75369,-0.661458 0.0728,0 -0.14735,0.297656 -0.48911,0.661458 -0.34176,0.363802 -0.68093,0.661459 -0.75369,0.661459 -0.0728,0 0.14734,-0.297657 0.48911,-0.661459 z m -166.42292,0.02831 c 0,-0.05719 0.18478,-0.174889 0.41062,-0.261554 0.23546,-0.09035 0.34166,-0.046 0.24897,0.103984 -0.15538,0.25141 -0.65959,0.371859 -0.65959,0.15757 z m 168.01042,-1.880391 c 0.34176,-0.363802 0.68093,-0.661458 0.75369,-0.661458 0.0728,0 -0.14735,0.297656 -0.48911,0.661458 -0.34176,0.363802 -0.68093,0.661458 -0.75369,0.661458 -0.0728,0 0.14734,-0.297656 0.48911,-0.661458 z m 1.05833,-1.290521 c 0,-0.05494 0.20836,-0.2633 0.46302,-0.463021 0.41966,-0.329107 0.429,-0.319749 0.0999,0.0999 -0.34565,0.44073 -0.56293,0.580888 -0.56293,0.363125 z m -33.40806,-4.695436 c 0.17949,-0.180822 0.39298,-0.262115 0.47445,-0.180652 0.0814,0.08146 -0.0654,0.229407 -0.32634,0.328766 -0.37708,0.143584 -0.40746,0.113194 -0.14811,-0.148114 z m 36.84764,0.197519 c 0,-0.05494 0.20836,-0.2633 0.46302,-0.463021 0.41966,-0.329107 0.429,-0.319749 0.0999,0.0999 -0.34565,0.440729 -0.56293,0.580887 -0.56293,0.363124 z m -131.35432,-2.527654 c -0.0837,-0.135467 -0.0511,-0.308822 0.0726,-0.385236 0.12364,-0.07642 0.2248,0.03442 0.2248,0.2463 0,0.446133 -0.0834,0.485111 -0.29738,0.138936 z m 151.99182,-6.1037 c -0.23847,-0.154109 -0.27109,-0.258098 -0.0817,-0.260532 0.1733,-0.0021 0.3887,0.115011 0.47863,0.260532 0.20301,0.328489 0.11141,0.328489 -0.39688,0 z M -223.78376,-53.58058 c -0.23847,-0.154109 -0.27109,-0.258098 -0.0818,-0.260533 0.1733,-0.0021 0.3887,0.115012 0.47863,0.260533 0.20302,0.328488 0.11142,0.328488 -0.39687,0 z m 17.86126,-4.230304 c -0.0927,-0.149982 0.0135,-0.194336 0.24897,-0.103984 0.45836,0.175893 0.54221,0.365538 0.16163,0.365538 -0.13692,0 -0.3217,-0.1177 -0.4106,-0.261554 z m -4.41712,-31.933769 c 0.19101,-0.07643 0.41921,-0.06703 0.50713,0.02088 0.0879,0.08792 -0.0684,0.150452 -0.34727,0.138964 -0.30823,-0.0127 -0.37091,-0.07539 -0.15986,-0.15985 z m 1.70326,-0.266229 c 0.25466,-0.06655 0.67138,-0.06655 0.92604,0 0.25466,0.06655 0.0463,0.121002 -0.46302,0.121002 -0.50932,0 -0.71768,-0.05445 -0.46302,-0.121002 z m 3.175,0 c 0.25466,-0.06655 0.67138,-0.06655 0.92604,0 0.25466,0.06655 0.0463,0.121002 -0.46302,0.121002 -0.50932,0 -0.71768,-0.05445 -0.46302,-0.121002 z"
         id="path308" /><path
         style="fill:#f06524;stroke-width:0.264583"
         d="m -211.76175,220.12821 c -2.32553,-0.42601 -5.00433,-1.24545 -7.1056,-2.17361 -0.885,-0.39092 -6.96693,-3.80034 -13.51537,-7.57653 -6.54843,-3.77616 -12.26343,-7.06863 -12.7,-7.3166 -1.29132,-0.7335 -5.84344,-3.36201 -9.3927,-5.42361 -1.81901,-1.05657 -3.78355,-2.18676 -4.36563,-2.51154 -0.58208,-0.32477 -5.58271,-3.20963 -11.1125,-6.4108 -18.46239,-10.68779 -22.82633,-13.21003 -24.60625,-14.22183 -0.43656,-0.24815 -2.75828,-1.58408 -5.15937,-2.96875 -2.4011,-1.38465 -5.97297,-3.44451 -7.9375,-4.57743 -1.96453,-1.13294 -6.48891,-3.74819 -10.05417,-5.81165 -3.56526,-2.06349 -9.22073,-5.33593 -12.56771,-7.27215 -6.63752,-3.83977 -8.35278,-5.0722 -11.13167,-7.99828 -4.48026,-4.71757 -7.09043,-10.33981 -8.17532,-17.60937 -0.35453,-2.37561 -0.40447,-10.8122 -0.40447,-68.330392 0,-71.546744 -0.0723,-67.967566 1.48369,-73.421875 1.56094,-5.471544 4.65358,-10.436476 8.89682,-14.282947 2.2164,-2.009158 3.81528,-3.037252 12.37366,-7.956393 10.94479,-6.290787 17.78174,-10.233129 30.03021,-17.316114 6.11187,-3.534347 12.60078,-7.284374 14.41979,-8.333396 5.98157,-3.449564 12.28907,-7.085529 13.09687,-7.549703 1.44435,-0.829943 3.92475,-2.261614 7.40834,-4.276056 1.89177,-1.093946 6.53521,-3.773519 10.31875,-5.954607 3.78354,-2.181087 9.14135,-5.280128 11.90625,-6.886754 2.76489,-1.606627 5.50333,-3.186909 6.08541,-3.511738 0.58209,-0.324829 3.32053,-1.908286 6.08542,-3.518795 6.58979,-3.838456 9.57271,-5.347814 12.16205,-6.154044 2.65195,-0.825716 6.53701,-1.436546 9.13691,-1.436546 4.24233,0 9.78643,1.300442 13.46872,3.159253 1.74779,0.882283 2.56686,1.350365 20.39795,11.657053 6.62119,3.827174 12.39573,7.161387 12.83229,7.409362 1.29132,0.733502 5.84345,3.362018 9.39271,5.423607 1.81901,1.056571 3.78354,2.186416 4.36562,2.510768 0.58209,0.324353 4.39209,2.523612 8.46667,4.887241 4.07458,2.363631 10.50396,6.084141 14.2875,8.2678 3.78354,2.183657 8.06979,4.658903 9.525,5.500548 1.45521,0.841642 4.96755,2.864247 7.80521,4.494675 17.9864,10.334421 28.67546,16.58184 30.03021,17.551712 2.13645,1.52952 5.3654,4.783731 6.89403,6.948004 2.85245,4.038531 4.6005,8.421346 5.52998,13.864987 0.35832,2.098582 0.40669,10.282571 0.40743,68.943828 0,65.227442 -0.01,66.621052 -0.52403,69.477522 -1.15658,6.4231 -3.35405,11.16719 -7.26202,15.67802 -2.89941,3.34666 -4.90712,4.79052 -13.64435,9.81249 -3.1287,1.7983 -7.8912,4.53591 -10.58334,6.08359 -2.69213,1.54769 -9.18104,5.29503 -14.41979,8.32747 -5.23875,3.03242 -11.78719,6.81792 -14.55208,8.41219 -2.7649,1.59428 -5.80099,3.34883 -6.74688,3.89901 -0.94588,0.55017 -4.39869,2.54384 -7.67291,4.43034 -3.27422,1.88651 -9.76313,5.63541 -14.41979,8.33091 -4.65667,2.69547 -8.88339,5.13644 -9.39271,5.42436 -1.28247,0.72495 -5.58102,3.20534 -9.525,5.49621 -1.81901,1.05656 -3.73523,2.16019 -4.25829,2.4525 -0.52305,0.29232 -4.35051,2.49788 -8.50545,4.90125 -4.15494,2.4034 -8.35052,4.73829 -9.32352,5.18864 -2.0524,0.94996 -5.60994,2.00403 -8.07524,2.39263 -2.30471,0.3633 -7.36674,0.29816 -9.67383,-0.12446 z m 21.69623,-16.8261 c 0.57322,-0.15915 3.25212,-1.5734 5.95312,-3.1428 2.70103,-1.5694 5.32765,-3.08708 5.83698,-3.37265 0.83992,-0.47087 3.01024,-1.71979 13.22916,-7.61264 1.81901,-1.04897 8.72464,-5.03851 15.34584,-8.86569 6.62119,-3.82717 12.39573,-7.16359 12.83229,-7.41426 1.54128,-0.88497 4.01852,-2.3137 8.46666,-4.88301 2.47386,-1.42894 4.91464,-2.83163 5.42396,-3.11711 0.50933,-0.28551 4.25979,-2.45301 8.33438,-4.81672 4.07458,-2.36368 9.84911,-5.70542 12.83229,-7.42608 2.98318,-1.72067 7.26943,-4.19479 9.525,-5.49804 2.25557,-1.30326 4.51776,-2.60337 5.02708,-2.88912 6.65076,-3.73137 9.05703,-6.01903 11.3769,-10.81622 2.16363,-4.47411 1.98456,2.17151 1.98456,-73.654392 V -7.675374 l -0.61224,-2.241084 c -1.14845,-4.203946 -3.84726,-8.383683 -6.96143,-10.781453 -1.32305,-1.018683 -3.89186,-2.549721 -16.90029,-10.072675 -6.01564,-3.478934 -7.35637,-4.250581 -8.73125,-5.025292 -0.65484,-0.368982 -1.63475,-0.949616 -2.17754,-1.290291 -0.54282,-0.340677 -1.03439,-0.619413 -1.09239,-0.619413 -0.058,0 -0.25929,0.386953 -0.4473,0.859896 -8.87214,22.316829 -30.16941,42.409314 -61.63485,58.148207 -15.62613,7.816127 -33.2232,14.212501 -51.39351,18.681051 -2.29095,0.563431 -4.16619,1.091539 -4.16718,1.173613 -0.001,0.08205 0.74233,0.57023 1.65184,1.084818 0.9095,0.514588 2.42755,1.38475 3.37343,1.933654 0.94589,0.548931 2.13651,1.235049 2.64584,1.524688 0.50932,0.289666 1.70357,0.979435 2.65385,1.532864 0.9503,0.553429 2.49811,1.247219 3.43958,1.541753 7.35835,2.301928 14.31481,1.392079 21.55553,-2.819268 1.23036,-0.715618 8.5145,-4.892675 35.98333,-20.634415 5.96635,-3.419181 11.3837,-6.516727 12.03854,-6.883437 0.65484,-0.366709 3.15516,-1.796848 5.55625,-3.178082 2.40109,-1.381236 4.78234,-2.744565 5.29167,-3.029622 0.50932,-0.285057 1.69994,-0.967692 2.64583,-1.51697 0.94589,-0.549278 2.13651,-1.232739 2.64583,-1.518806 0.50933,-0.286065 7.95073,-4.546243 16.53646,-9.467062 28.21869,-16.173228 25.13439,-14.513896 26.96977,-14.509554 1.82222,0.0043 2.9277,0.472877 3.93222,1.666698 1.46229,1.737828 1.62266,4.443478 0.37512,6.328643 -0.64616,0.976418 -2.56214,2.198711 -9.68412,6.177954 -0.52551,0.293622 -1.72939,0.983266 -2.67528,1.532544 -0.94589,0.549277 -2.13651,1.233331 -2.64583,1.520121 -0.50933,0.28679 -6.70058,3.833722 -13.75834,7.882072 -7.05776,4.04835 -14.02291,8.033674 -15.47812,8.856271 -1.45521,0.8226 -5.92005,3.380365 -9.92188,5.683922 -4.00182,2.303558 -8.46666,4.862314 -9.92187,5.686124 -7.18505,4.067534 -43.32801,24.79472 -44.6985,25.633583 -2.19271,1.34215 -5.63507,4.67516 -7.26765,7.0368 -1.62261,2.34718 -2.95929,5.1797 -3.78296,8.01648 l -0.59471,2.04817 -0.0757,61.563042 c -0.0748,60.92936 -0.0702,61.57753 0.45146,62.97083 0.91316,2.43893 3.21397,4.62957 5.66976,5.39819 1.3571,0.42476 3.67006,0.46283 5.03838,0.0829 z m 16.15572,-21.06375 c -0.29104,-0.0704 -0.80838,-0.38401 -1.14961,-0.69691 -1.45347,-1.3327 -1.36438,2.28314 -1.35835,-55.12607 l 0.006,-53.128252 0.63947,-1.81219 c 0.35174,-0.99668 1.03383,-2.4729 1.5158,-3.28043 1.26412,-2.11812 4.26257,-5.03902 6.56481,-6.39503 1.09141,-0.64284 4.36563,-2.55937 7.27605,-4.25898 2.91041,-1.6996 6.66088,-3.898393 8.33437,-4.886189 1.67349,-0.987821 3.3999,-2.000805 3.83646,-2.251101 0.43656,-0.250296 2.87734,-1.684814 5.42396,-3.187806 2.54661,-1.503018 6.30086,-3.693133 8.34276,-4.866957 8.96162,-5.151753 16.30775,-7.558194 23.07288,-7.558194 10.04578,0 16.53747,5.904998 18.38172,16.720503 0.40505,2.375376 0.40095,10.400714 -0.007,13.378554 -1.11715,8.15797 -4.16089,16.86655 -8.71479,24.93428 -2.37046,4.19954 -6.31968,9.85533 -9.05,12.960722 l -0.57816,0.65762 3.00376,2.91425 c 1.65206,1.60285 6.34971,6.16024 10.43924,10.12751 4.0895,3.96727 7.58325,7.56997 7.76383,8.00595 0.21121,0.50993 0.28638,1.59279 0.21066,3.03538 -0.10637,2.02655 -0.23927,2.48745 -1.37928,4.7839 -1.6896,3.40355 -3.92935,5.7712 -7.46966,7.89618 -6.49033,3.89567 -19.40168,11.42301 -20.58313,12.00001 -1.75646,0.85784 -3.76004,1.05281 -4.87799,0.47469 -0.47138,-0.24376 -4.75086,-4.36581 -9.50997,-9.16011 -4.75911,-4.7943 -8.71141,-8.71686 -8.78284,-8.71678 -0.0715,8e-5 -0.12991,5.56625 -0.12991,12.36927 v 12.36911 l -0.75489,2.05169 c -1.5635,4.24953 -4.25005,7.34933 -8.549,9.86412 -1.43132,0.83727 -3.48329,2.05282 -4.55996,2.70123 -1.07667,0.64842 -2.32683,1.38915 -2.77813,1.64608 -0.4513,0.25691 -2.90412,1.6909 -5.45073,3.18662 -5.56276,3.26723 -6.97259,3.76878 -9.12813,3.24733 z m 32.54375,-85.817342 c 6.81726,-3.92358 10.18088,-6.34939 13.22917,-9.54079 3.47504,-3.63815 4.80721,-6.99281 4.57909,-11.53086 -0.13401,-2.66565 -0.60195,-3.80725 -1.87994,-4.5865 -1.07768,-0.65707 -1.96546,-0.6514 -4.41818,0.0283 -3.08578,0.85511 -5.68351,2.19851 -15.01587,7.76531 l -1.12448,0.67078 v 9.94994 9.94998 l 0.8599,-0.51554 c 0.47294,-0.28353 2.16958,-1.26932 3.77031,-2.1906 z m -93.5403,82.309762 c 0.89087,-0.63436 1.63125,-2.11031 1.79721,-3.58277 0.24034,-2.13223 -0.57493,-4.29202 -5.49167,-14.54838 -0.90688,-1.89177 -2.75383,-5.82084 -4.10433,-8.73125 -1.3505,-2.91042 -2.9299,-6.3037 -3.50979,-7.54063 -2.51278,-5.35987 -7.56054,-16.08725 -7.98156,-16.96222 l -0.4595,-0.95494 2.41568,-0.29689 c 6.33897,-0.77898 10.61886,-3.77499 13.34789,-9.3437 2.318,-4.72999 3.11397,-9.28593 2.85879,-16.36308 -0.15181,-4.210082 -0.70918,-7.778562 -1.92169,-12.303132 -4.66971,-17.42543 -17.42319,-34.767515 -34.21761,-46.528879 -2.51827,-1.763554 -36.78741,-21.846887 -40.48206,-23.724373 -2.81452,-1.430237 -4.8494,-1.298178 -6.35111,0.412179 -0.4359,0.496461 -0.91744,1.352394 -1.07008,1.902076 -0.18936,0.681884 -0.27677,17.475732 -0.27511,52.857747 0.003,57.410832 -0.1163,53.498972 1.73453,57.021102 1.11236,2.11683 2.96808,4.46722 4.61009,5.83906 1.18402,0.9892 18.50867,11.13475 21.03437,12.31802 2.69198,1.26117 5.22679,0.61151 6.35,-1.6275 0.50215,-1.001 0.53319,-1.66939 0.60789,-13.09338 l 0.0787,-12.03855 0.87107,1.98438 c 1.04401,2.37837 0.39783,0.97113 9.35144,20.36538 3.99539,8.65433 7.67336,16.35135 8.17328,17.10451 0.86686,1.30599 3.35501,3.9169 4.49097,4.71255 0.46464,0.32544 6.44363,3.83056 9.49955,5.569 0.58208,0.33113 1.80247,1.03347 2.71198,1.56073 4.35583,2.52521 5.02372,2.91118 5.88698,3.40209 0.50932,0.28967 1.75948,1.01396 2.77812,1.60957 3.126,1.82782 5.60662,2.16281 7.26596,0.98128 z m -37.69303,-89.034752 c -2.97976,-0.65487 -5.56386,-1.87163 -12.24353,-5.76503 l -4.30603,-2.50989 -0.0596,-9.82168 c -0.0328,-5.40192 -0.0436,-9.82168 -0.0241,-9.82168 0.31331,3e-5 11.00611,6.4724 12.70821,7.69231 3.47371,2.48963 6.6211,5.79843 7.80096,8.20098 1.43216,2.91634 1.8741,6.20733 1.25053,9.31232 -0.51848,2.58168 -2.04562,3.38977 -5.12646,2.71267 z m 37.66079,-58.370514 c 23.53117,-5.816068 44.59983,-14.076743 62.74858,-24.602691 4.50353,-2.611964 11.34206,-7.00971 14.2875,-9.188045 0.80037,-0.591921 1.99099,-1.469679 2.64584,-1.95057 5.96246,-4.37861 14.004,-11.710619 18.81502,-17.154922 4.93189,-5.581094 9.56352,-12.364114 12.60348,-18.457769 1.73133,-3.470487 1.96305,-4.09216 1.63716,-4.392179 -0.20878,-0.192217 -2.8204,-1.751232 -5.80358,-3.464481 -2.98318,-1.713245 -8.46005,-4.872392 -12.17083,-7.020324 -3.71078,-2.147933 -7.1636,-4.138965 -7.67292,-4.424516 -0.50932,-0.285552 -2.9501,-1.688314 -5.42396,-3.117244 -5.18766,-2.996465 -7.29766,-4.212712 -8.59896,-4.956638 -0.50932,-0.291169 -5.00827,-2.895981 -9.99767,-5.788472 -4.98941,-2.892494 -9.12903,-5.259078 -9.19914,-5.259078 -0.0701,0 -2.35776,1.295865 -5.08358,2.879701 -2.72584,1.583835 -5.37278,3.117085 -5.88211,3.407222 -1.19202,0.679043 -3.05395,1.751896 -8.59896,4.954765 -2.47385,1.42893 -4.91463,2.832192 -5.42395,3.11836 -3.26218,1.83288 -5.02688,2.907213 -5.02542,3.059462 0,0.0964 0.38788,0.401079 0.8599,0.677056 1.3326,0.779131 3.93546,2.285267 4.95927,2.869668 0.50932,0.290727 6.16479,3.563207 12.5677,7.272179 6.40292,3.708971 15.57073,9.009631 20.37292,11.779244 10.67096,6.15437 9.9759,5.723843 9.85274,6.10285 -0.0971,0.298771 -1.83605,1.429637 -4.42878,2.880067 -0.65484,0.366334 -2.38125,1.360871 -3.83646,2.210083 -1.83271,1.069514 -2.93042,1.546257 -3.57187,1.551302 -0.94549,0.0074 -1.27612,-0.177027 -26.06146,-14.540756 -4.07459,-2.361322 -7.82505,-4.530651 -8.33438,-4.82073 -0.86352,-0.491818 -1.55104,-0.889225 -5.88698,-3.402888 -0.9095,-0.527267 -2.18942,-1.261129 -2.84427,-1.630807 -0.65484,-0.369676 -2.36143,-1.366356 -3.79243,-2.214846 l -2.60178,-1.542708 -4.27737,2.480246 c -2.35256,1.364134 -4.69409,2.715916 -5.20342,3.003963 -0.50932,0.288046 -2.05713,1.177369 -3.43958,1.976273 -5.91545,3.418488 -9.71873,5.610665 -10.58333,6.100128 -3.7226,2.107422 -14.7268,8.504915 -14.90425,8.664853 -0.12093,0.109 0.41485,0.54801 1.19063,0.975577 0.77577,0.427569 2.98807,1.691891 4.91622,2.809607 6.32925,3.668959 12.826,7.422944 14.61823,8.446781 1.42207,0.812377 22.56544,13.052388 25.33385,14.665907 2.38229,1.388465 2.79758,1.859558 2.11667,2.40111 -0.32295,0.256857 -6.29573,3.724984 -8.6651,5.031433 -0.65485,0.361074 -1.30374,0.760859 -1.44198,0.888407 -0.13825,0.12755 -0.68183,0.231907 -1.20796,0.231907 -0.7615,0 -2.73414,-1.030615 -9.67053,-5.052377 -4.79265,-2.778808 -9.19016,-5.32397 -9.77224,-5.655919 -1.09955,-0.627046 -3.55732,-2.045464 -5.15938,-2.977562 -0.50932,-0.296334 -3.24776,-1.876079 -6.08541,-3.510548 -2.83766,-1.634468 -5.93329,-3.421086 -6.87917,-3.97026 -9.24299,-5.366412 -11.89584,-6.879167 -12.06369,-6.879167 -0.10784,0 -2.70614,1.449239 -5.774,3.220532 -3.06787,1.771296 -9.38794,5.419672 -14.0446,8.107506 -4.65667,2.687835 -9.46013,5.465315 -10.67435,6.172176 -1.21423,0.706861 -2.31556,1.285203 -2.4474,1.285203 -0.69571,0 0.0312,0.5832 2.47227,1.983592 1.49159,0.855686 6.7601,3.900638 11.70781,6.766565 4.94771,2.865927 9.41255,5.44608 9.92188,5.733677 1.26051,0.711766 5.52591,3.172775 9.525,5.495639 1.81901,1.056571 3.78354,2.186464 4.36562,2.510872 0.58208,0.324408 3.32052,1.897491 6.08542,3.495736 5.82141,3.365061 6.09353,3.523305 14.68437,8.539459 3.56526,2.081739 6.7609,3.797144 7.10142,3.812011 0.34052,0.01487 3.55521,-0.698662 7.14375,-1.585622 z m -76.87221,-47.436942 c 4.10378,-2.384258 7.87814,-4.570095 8.38746,-4.857417 0.85702,-0.483465 4.39992,-2.524934 10.58333,-6.09828 1.38245,-0.798904 2.93026,-1.688227 3.43959,-1.976274 1.09235,-0.617775 6.23539,-3.587882 17.85937,-10.313786 4.65667,-2.694456 8.88339,-5.133211 9.39271,-5.419455 0.50932,-0.286245 2.9501,-1.687362 5.42396,-3.113593 2.47385,-1.426231 5.9862,-3.450889 7.80521,-4.49924 1.81901,-1.04835 7.17682,-4.144192 11.90625,-6.879651 10.51798,-6.083498 13.59807,-7.859993 22.225,-12.818528 14.70898,-8.454358 22.225,-12.845962 22.225,-12.986049 0,-0.27713 -6.48187,-3.643021 -7.80521,-4.053067 -4.48104,-1.388488 -9.44809,-1.232818 -13.51055,0.423426 -0.86389,0.352205 -5.73789,3.054376 -10.83112,6.004824 -10.50249,6.083967 -14.14662,8.190561 -15.47812,8.947563 -1.07855,0.613191 -2.78825,1.598528 -7.54063,4.345845 -1.89177,1.093618 -5.46364,3.152881 -7.9375,4.576141 -2.47385,1.42326 -7.83167,4.522613 -11.90625,6.887453 -4.07458,2.364841 -7.82505,4.534845 -8.33437,4.822232 -1.24719,0.703726 -5.49042,3.151775 -9.525,5.495259 -1.81901,1.056571 -3.78355,2.186262 -4.36563,2.510425 -0.58208,0.324164 -3.97536,2.279139 -7.54062,4.344389 -3.56526,2.06525 -10.38669,6.010458 -15.15873,8.767128 -4.7738,2.757688 -9.16274,5.477592 -9.7576,6.046964 -2.84716,2.72515 -3.39982,7.761621 -1.20928,11.020327 0.46856,0.697045 3.66407,3.150495 4.11211,3.157191 0.0436,5.29e-4 3.43684,-1.949571 7.54062,-4.333827 z"
         id="path306" /></g></g></svg>
